<?xml version="1.0" encoding="UTF-8"?>
<svg version="1.1" xmlns="http://www.w3.org/2000/svg" width="569" height="603">
<path d="M0 0 C-0.91136719 0.44988281 -1.82273438 0.89976563 -2.76171875 1.36328125 C-6.35349448 3.14265846 -9.93554374 4.94089821 -13.51416016 6.74658203 C-15.18437877 7.5887449 -16.85595289 8.42822435 -18.52880859 9.26513672 C-55.48484464 27.81668864 -90.2864251 53.60989226 -104.05859375 94.11328125 C-108.61391799 110.22038465 -107.52233455 126.32476091 -102 142 C-101.73896484 141.47680176 -101.47792969 140.95360352 -101.20898438 140.41455078 C-91.46720657 121.02909538 -91.46720657 121.02909538 -84 113 C-83.00806641 111.87271484 -83.00806641 111.87271484 -81.99609375 110.72265625 C-71.23218203 99.12617677 -57.35558695 92.97335647 -43 87 C-51.89030044 85.01419406 -59.33014561 83.92847038 -67.57421875 88.39453125 C-74.27624936 92.88538096 -79.56809517 98.51683961 -84.87792969 104.54370117 C-88.85478135 109.01095346 -93.09502397 112.57991488 -98 116 C-98.66 115.67 -99.32 115.34 -100 115 C-86.63284276 79.13755041 -86.63284276 79.13755041 -70.0625 70.6875 C-65.23068674 68.68609071 -60.57212805 67.32818449 -55.40625 66.45703125 C-54.6796669 66.3319519 -53.9530838 66.20687256 -53.20448303 66.07800293 C-42.75512896 64.36825986 -32.18973636 63.63704014 -21.64477539 62.77050781 C-9.92397509 61.79591623 1.48752002 60.45621406 13 58 C12.02498535 57.40143188 12.02498535 57.40143188 11.03027344 56.79077148 C4.95302969 53.01754488 1.31013627 49.9304088 -1 43 C-1.12065456 40.89836585 -1.17536009 38.79255967 -1.1875 36.6875 C-1.20167969 35.57761719 -1.21585938 34.46773437 -1.23046875 33.32421875 C-0.99333157 29.9038164 -0.22108501 27.19026557 1 24 C4.24977788 25.62488894 4.90088838 29.0200899 6.29296875 32.26171875 C10.93824647 39.71329697 17.8441483 42.53427401 25.8125 45.5 C41.3736722 51.3636301 53.72207617 59.09973711 62 74 C62.47965078 58.35139332 55.67950083 44.51862949 45.875 32.6875 C32.96689308 19.17953269 15.77851161 13.77056111 -2 10 C-2 9.67 -2 9.34 -2 9 C16.86399489 4.9212984 39.09150735 9.91772473 55.22265625 20.0078125 C71.99138932 32.03601766 79.20764968 50.34873019 83 70 C84.45865479 67.89605554 85.91693566 65.7918536 87.375 63.6875 C87.7875 63.09259766 88.2 62.49769531 88.625 61.88476562 C92.44237955 56.37419353 94.32485824 53.00941291 94.625 46.3125 C94.66367187 45.61060547 94.70234375 44.90871094 94.7421875 44.18554688 C94.8362334 42.45745345 94.9191968 40.72876325 95 39 C95.66 39 96.32 39 97 39 C103.75045209 51.59682577 101.74913973 67.48017908 100 81.1875 C99.86851562 82.23176147 99.86851562 82.23176147 99.734375 83.29711914 C99.36738164 86.17711344 98.99223409 89.0549475 98.5859375 91.9296875 C97.90415207 100.43937976 102.04053653 106.88144248 106.00146484 114.10888672 C110.11570567 121.90079612 110.11570567 121.90079612 109.75 125.375 C109 127 109 127 108 128 C106.33382885 128.04063832 104.66611905 128.042721 103 128 C103.069233 132.57205552 103.15736767 137.14322729 103.26245117 141.71459961 C103.29554777 143.26723362 103.32362651 144.81998353 103.34643555 146.37280273 C103.38026524 148.6149194 103.43258987 150.85598847 103.48828125 153.09765625 C103.49786613 154.12621483 103.49786613 154.12621483 103.50764465 155.17555237 C103.67209509 160.66014788 104.75795489 165.75795489 108.75 169.75 C111.16187324 171.15041668 111.16187324 171.15041668 114.5625 172.4375 C119.58103976 174.71865443 119.58103976 174.71865443 121 178 C120.80934205 182.00381692 120.622605 184.83189278 118.73828125 188.3671875 C117.67509347 191.10104512 117.67509347 191.10104512 119.2734375 193.98046875 C121.48015984 197.34797627 123.70206285 200.69433286 126 204 C126.63808594 204.96679688 127.27617187 205.93359375 127.93359375 206.9296875 C132.21252966 212.92553533 135.70516846 214.99096499 142.6953125 217.1015625 C145 218 145 218 146.75 220.625 C147.5888363 231.94929001 144.16032749 241.17569761 137 250.0625 C131.53692056 255.90787168 124.16944913 262.41527544 117 266 C117.165 265.05125 117.33 264.1025 117.5 263.125 C117.6768977 261.75127878 117.84245298 260.37607475 118 259 C118.103125 258.22785156 118.20625 257.45570313 118.3125 256.66015625 C118.72712322 251.19231255 118.00697313 248.56894722 114.5 244.3125 C110.23644501 238.87754404 110.34027284 234.24836028 110.55859375 227.515625 C110.98692916 224.10410404 111.78491701 221.20742553 113 218 C112.34 218.33 111.68 218.66 111 219 C109.16871229 219.09608608 107.33380041 219.12982579 105.5 219.125 C104.5203125 219.12757813 103.540625 219.13015625 102.53125 219.1328125 C100 219 100 219 98 218 C98.33 216.68 98.66 215.36 99 214 C96.69 214 94.38 214 92 214 C91.34 211.69 90.68 209.38 90 207 C89.42765625 207.36867187 88.8553125 207.73734375 88.265625 208.1171875 C86 209 86 209 83.859375 208.3203125 C83.16328125 207.92585937 82.4671875 207.53140625 81.75 207.125 C81.04359375 206.73570312 80.3371875 206.34640625 79.609375 205.9453125 C79.07828125 205.63335937 78.5471875 205.32140625 78 205 C78 203.35 78 201.7 78 200 C76.6078125 200.7115625 76.6078125 200.7115625 75.1875 201.4375 C68.14508738 204.41096311 60.35791752 205.04495105 53.1953125 202.1953125 C44.52456722 197.47423055 39.31384619 190.38650898 36.390625 181.0546875 C34.2655942 169.87702552 36.7735149 159.70973882 43.01171875 150.3984375 C43.33785156 149.93695313 43.66398437 149.47546875 44 149 C32.40013573 152.23274906 24.16051206 158.29327426 15.99609375 167.05859375 C14 169 14 169 12 169 C15.46935453 157.54112231 23.67698698 148.26795812 31 139 C30.18015625 139.27714844 29.3603125 139.55429688 28.515625 139.83984375 C27.43796875 140.20207031 26.3603125 140.56429687 25.25 140.9375 C24.18265625 141.29714844 23.1153125 141.65679687 22.015625 142.02734375 C19.68264275 142.77982119 17.38625005 143.44977244 15 144 C15 143.34 15 142.68 15 142 C17.1551444 140.31115591 19.31022534 138.73693718 21.5625 137.1875 C22.17158203 136.76146484 22.78066406 136.33542969 23.40820312 135.89648438 C25.92998196 134.13257346 28.4553579 132.3742662 30.99169922 130.63134766 C34.54166037 128.32719223 34.54166037 128.32719223 37 125 C29.0313984 122.67101258 21.54573159 122.1614677 13.8125 125.625 C5.36857187 130.39173362 0.45958803 137.71583545 -2.609375 146.8046875 C-4.6477355 158.2602735 -3.134198 168.60871096 2 179 C2.4228125 179.90878906 2.845625 180.81757813 3.28125 181.75390625 C7.72504866 190.62858555 14.15598649 198.03972001 20.37939453 205.69726562 C34.52329378 223.1984772 34.52329378 223.1984772 35.6875 234.25 C36.40183261 239.04845166 38.61087239 240.77005532 42.4375 243.625 C46.38134729 246.38606748 46.38134729 246.38606748 51 247 C52.58342432 245.29968155 52.58342432 245.29968155 54 243.125 C55.94357251 240.3007462 57.07797699 238.94801534 60 237 C63.55025388 236.67724965 66.09708604 236.59606481 69.375 238.0625 C71.71005127 240.84659959 71.73214392 243.45090698 72 247 C68.44044831 247 67.72100827 246.10658705 65 244 C64.34 244 63.68 244 63 244 C63 244.99 63 245.98 63 247 C64.32 247 65.64 247 67 247 C67 247.99 67 248.98 67 250 C67.78503906 249.96519531 68.57007813 249.93039063 69.37890625 249.89453125 C75.74025839 249.73061911 80.51044621 249.6390487 86 253 C89.30177772 256.15522362 91.87135178 259.30867932 92.09765625 264.04296875 C92.06510417 266.02864583 92.03255208 268.01432292 92 270 C87.545 267.03 87.545 267.03 83 264 C83.33 264.99 83.66 265.98 84 267 C85.15398834 272.86610739 85.28826796 275.73877126 82 281 C81.34 281 80.68 281 80 281 C79.72349609 280.20335937 79.72349609 280.20335937 79.44140625 279.390625 C77.56538243 274.82146476 75.96637192 272.54060974 71.375 270.5 C69.09441757 269.62110445 67.44179559 269 65 269 C63.19682779 272.96697886 62.50797009 276.6822542 62 281 C59 280 59 280 57.25 276.6875 C55.30412652 271.15234694 56.21133987 265.70115753 57 260 C55.90042969 260.02320313 54.80085938 260.04640625 53.66796875 260.0703125 C52.17451287 260.09112073 50.68101685 260.10916157 49.1875 260.125 C48.02686035 260.13817261 48.02686035 260.13817261 46.84277344 260.15161133 C42.28230535 260.1530347 38.20647079 259.76952377 33.75 258.6875 C29.65673518 257.82222321 29.65673518 257.82222321 25.8125 259.8125 C23.33073068 264.17699088 22.82823444 267.20227103 24 272 C25.77149787 276.31392537 27.94434386 280.42031621 30.15234375 284.5234375 C32 288 32 288 33 291 C29.14340838 289.55377814 25.52237006 287.78682503 21.8671875 285.90234375 C17.79564326 283.93471463 14.48706043 283.60639821 10 284 C5.98957973 286.63541903 4.74030949 290.63541825 3.125 294.9765625 C1.70707924 297.52685054 0.75098697 298.07659179 -2 299 C-3.91120617 299.19112062 -5.83034995 299.31034857 -7.75 299.375 C-19.81767491 300.28080611 -27.27811037 307.47336475 -34.98828125 316.39453125 C-41.96588916 324.73297283 -47.72337452 333.5150873 -53 343 C-53.47469727 343.84546387 -53.94939453 344.69092773 -54.43847656 345.56201172 C-60.75456331 356.84073805 -66.76869589 368.1743055 -72 380 C-73.31199175 376.06402475 -72.05041387 373.65920588 -70.73046875 369.91796875 C-67.81820105 361.15773872 -66.47577866 352.44368733 -65.3125 343.3125 C-65.01518405 341.04549614 -64.7137617 338.77920192 -64.40507507 336.51371765 C-64.1302822 334.48857339 -63.86806893 332.46173359 -63.60668945 330.43481445 C-62.74949129 325.58172755 -62.22631885 322.86829397 -58.13671875 319.97265625 C-56.99847656 319.34230469 -55.86023438 318.71195312 -54.6875 318.0625 C-48.38492844 314.39691197 -44.05680641 311.76487285 -42 304.4375 C-42 300.47093653 -42.42387318 298.99163114 -45 296 C-48.5246992 293.54090753 -50.99024232 292.77163607 -55.1875 293.25 C-58.90277228 293.89694392 -58.90277228 293.89694392 -62 295 C-64.29373775 300.84268051 -64.11376954 306.0445138 -63.65820312 312.21484375 C-63.51404093 316.08134783 -63.74396997 317.69400211 -66.26171875 320.703125 C-67.16535156 321.46109375 -68.06898438 322.2190625 -69 323 C-80.90646631 336.2143736 -84.40543813 350.78431887 -87 368 C-87.66 367.67 -88.32 367.34 -89 367 C-91.36996293 359.83744537 -91.64275079 352.48672131 -92.125 345 C-92.21136719 343.74832031 -92.29773438 342.49664062 -92.38671875 341.20703125 C-92.59754106 338.13839544 -92.80178454 335.06947157 -93 332 C-106.63373049 346.79108485 -113.25762348 365.10570091 -115 385 C-115.08378906 385.85722656 -115.16757813 386.71445312 -115.25390625 387.59765625 C-114.91288978 390.8241967 -113.65314967 392.23284981 -111.625 394.75 C-100.4133492 409.53983723 -89.67742001 426.96778045 -90 446 C-90.66 446 -91.32 446 -92 446 C-93.55795858 444.13715715 -95.00354697 442.26781499 -96.4375 440.3125 C-100.12614513 435.4111216 -103.88436049 430.58728535 -107.8125 425.875 C-108.4775354 425.05962769 -108.4775354 425.05962769 -109.15600586 424.2277832 C-111.83068676 421.0451689 -114.41019333 419.04329594 -118 417 C-115.89077419 445.32351422 -112.37348124 472.30515643 -102 499 C-101.71785645 499.76425293 -101.43571289 500.52850586 -101.14501953 501.31591797 C-99.13245281 506.09865872 -97.00988092 508.1487841 -92.23388672 510.16748047 C-91.12811279 510.57957764 -91.12811279 510.57957764 -90 511 C-88.85362061 511.44883545 -88.85362061 511.44883545 -87.68408203 511.90673828 C-84.50316689 513.12885519 -81.30480046 514.29743467 -78.09570312 515.44335938 C-76.93651367 515.87551758 -76.93651367 515.87551758 -75.75390625 516.31640625 C-75.05595947 516.56849854 -74.3580127 516.82059082 -73.63891602 517.08032227 C-72 518 -72 518 -71 521 C-72.13888672 521.05607422 -72.13888672 521.05607422 -73.30078125 521.11328125 C-74.29464844 521.17902344 -75.28851563 521.24476563 -76.3125 521.3125 C-77.29863281 521.37050781 -78.28476563 521.42851563 -79.30078125 521.48828125 C-81.96579512 521.84007193 -81.96579512 521.84007193 -83.91796875 523.10546875 C-85.73226421 526.28212325 -84.88675196 528.54709647 -84 532 C-82.63839796 534.40349878 -81.33551274 536.44495413 -79.6875 538.625 C-79.24744629 539.22256104 -78.80739258 539.82012207 -78.35400391 540.43579102 C-71.28257595 549.83676139 -63.19528627 558.64709059 -54 566 C-52.58847656 567.15048828 -52.58847656 567.15048828 -51.1484375 568.32421875 C-43.2042454 574.6854853 -34.80570155 579.92218389 -26 585 C-24.3311833 585.99640784 -22.66360078 586.99490786 -21 588 C-25.25117715 589.41705905 -28.48982321 587.9602934 -32.625 586.6875 C-33.49874268 586.42114746 -34.37248535 586.15479492 -35.27270508 585.88037109 C-68.61468207 575.39069469 -100.35208838 559.44123758 -128 538 C-127.855625 537.31421875 -127.71125 536.6284375 -127.5625 535.921875 C-123.756695 514.46136345 -124.23946204 492.0860983 -133 472 C-133.495 470.515 -133.495 470.515 -134 469 C-134.99 469.33 -135.98 469.66 -137 470 C-137.23950618 480.2455423 -136.77203196 489.87410311 -135 500 C-148.88434578 493.86722843 -158.12911543 475.59394963 -163.53125 462.1328125 C-170.65951072 442.99857656 -171.49466562 422.9695178 -168 403 C-167.34 403 -166.68 403 -166 403 C-165.49210937 404.2065625 -164.98421875 405.413125 -164.4609375 406.65625 C-159.81459514 418.85498479 -159.81459514 418.85498479 -152 429 C-149.90709915 429.71171143 -149.90709915 429.71171143 -148 430 C-144.74235793 423.48471587 -149.12668606 411.80566665 -150.5390625 404.94335938 C-155.40344575 380.53068972 -153.14784313 355.48229414 -150 331 C-154.20999088 333.42209553 -157.49760569 336.22406087 -160.875 339.6875 C-161.4016626 340.21988281 -161.9283252 340.75226563 -162.47094727 341.30078125 C-165.97513728 344.87017302 -169.29149668 348.56352551 -172.53125 352.375 C-174.48159686 354.53283056 -176.65189925 356.29229036 -179 358 C-174.50178143 333.46426233 -159.09614724 314.7588133 -140.09375 299.51953125 C-134.50898059 294.97132889 -129.10937026 290.2091977 -123.69042969 285.46582031 C-122.23853017 284.20683639 -120.76572644 282.97203153 -119.2890625 281.7421875 C-106.65855265 271.09462459 -101.7425495 259.11858285 -100 243 C-99.43603516 243.26216309 -98.87207031 243.52432617 -98.29101562 243.79443359 C-95.69728426 244.99517614 -93.09873574 246.18512942 -90.5 247.375 C-89.613125 247.7875 -88.72625 248.2 -87.8125 248.625 C-79.29881571 252.50623843 -71.38096489 255.46177495 -62 253 C-53.40401511 248.94078491 -46.69979509 241.70540021 -43 233 C-43.71285156 233.33773437 -44.42570313 233.67546875 -45.16015625 234.0234375 C-58.02562146 240.01462318 -70.09784259 242.24133616 -84 238 C-84.33 237.34 -84.66 236.68 -85 236 C-84.00742188 235.59910156 -83.01484375 235.19820312 -81.9921875 234.78515625 C-74.73366641 231.77732288 -67.81145524 228.56114491 -61.1875 224.3125 C-60.31810791 223.76057983 -60.31810791 223.76057983 -59.43115234 223.19750977 C-56.35063416 221.15867501 -53.6682109 219.34262332 -52 216 C-51.80303339 212.675016 -52.35796355 210.78106676 -54.48144531 208.19775391 C-56.47702286 206.17351924 -58.53517958 204.2391944 -60.625 202.3125 C-73.09371166 190.30543981 -78.90622724 179.38721522 -80 162 C-87.28256835 173.32843965 -90.28114661 187.13365426 -93.99108887 199.95397949 C-111.03110426 258.52372195 -111.03110426 258.52372195 -137 273 C-155.79878046 281.44519309 -175.47324334 280.8711322 -195 275 C-191.41486069 272.60990713 -188.4702845 272.53093494 -184.3125 272.1875 C-165.28143763 270.22653933 -147.33489616 262.7477284 -133 250 C-131.88431641 249.11441406 -131.88431641 249.11441406 -130.74609375 248.2109375 C-119.92685216 239.3673835 -111.40297559 226.20892678 -107 213 C-106.93259135 211.43881572 -106.91485544 209.8749748 -106.9375 208.3125 C-106.94652344 207.50425781 -106.95554688 206.69601563 -106.96484375 205.86328125 C-106.98224609 204.94095703 -106.98224609 204.94095703 -107 204 C-119.47413773 205.81869933 -129.25868284 222.57842832 -136.6875 231.8125 C-147.71710094 245.29752377 -159.17384622 253.52539783 -176 258 C-176.99 258 -177.98 258 -179 258 C-177.69950909 255.1185354 -176.34060182 253.11353344 -174.05859375 250.93359375 C-173.47948242 250.37148193 -172.90037109 249.80937012 -172.30371094 249.23022461 C-171.68786133 248.63862549 -171.07201172 248.04702637 -170.4375 247.4375 C-164.49543679 241.60819372 -159.10614024 235.58374126 -154 229 C-153.21367187 228.030625 -152.42734375 227.06125 -151.6171875 226.0625 C-139.93717998 211.41672254 -126.20648497 193.44111817 -127 174 C-135.41089312 174.81552799 -140.06297549 180.54554667 -145.328125 186.73828125 C-154.25673661 198.27367283 -161.24170309 211.11360107 -168 224 C-168.66 223.67 -169.32 223.34 -170 223 C-169.73382874 222.18935593 -169.73382874 222.18935593 -169.46228027 221.36233521 C-156.094893 180.64209884 -142.98861596 139.84237518 -130 99 C-130.33 98.67 -130.66 98.34 -131 98 C-131.81082031 98.75023438 -132.62164062 99.50046875 -133.45703125 100.2734375 C-134.5755161 101.30729679 -135.69400607 102.34115054 -136.8125 103.375 C-137.3998291 103.91866211 -137.9871582 104.46232422 -138.59228516 105.02246094 C-141.39900081 107.61642042 -144.21207963 110.2006252 -147.06640625 112.7421875 C-152.46035217 117.55847857 -157.42895329 122.39977238 -162 128 C-162.42361816 128.50595703 -162.84723633 129.01191406 -163.28369141 129.53320312 C-177.86609934 146.96205706 -190.09143168 166.54684038 -200 187 C-199.4738208 186.28589966 -199.4738208 186.28589966 -198.93701172 185.55737305 C-198.43959473 184.88230713 -197.94217773 184.20724121 -197.4296875 183.51171875 C-196.86999268 182.75205811 -196.31029785 181.99239746 -195.73364258 181.2097168 C-194.47855923 179.50654248 -193.22318086 177.80358553 -191.9675293 176.10083008 C-188.75150429 171.73882376 -185.53960131 167.37395663 -182.33984375 163 C-173.27455928 150.61963973 -164.06337017 138.45609972 -154.0625 126.8125 C-153.51843506 126.17602539 -152.97437012 125.53955078 -152.41381836 124.88378906 C-147.22692851 118.9166422 -147.22692851 118.9166422 -144 117 C-143.01 117 -142.02 117 -141 117 C-142.56756354 120.53114312 -144.70595149 123.24873981 -147.125 126.25 C-159.26785789 141.72434816 -170.05364967 158.48429304 -179 176 C-179.44150391 176.85851562 -179.88300781 177.71703125 -180.33789062 178.6015625 C-201.22440086 219.61507351 -211.22299301 263.17624419 -211.25 309.0625 C-211.25067474 310.09088989 -211.25134949 311.11927979 -211.25204468 312.17883301 C-211.23556535 327.9983678 -210.65982844 343.37350789 -208 359 C-207.83371094 360.02754395 -207.66742188 361.05508789 -207.49609375 362.11376953 C-198.63887269 415.90498519 -177.45180375 468.33594153 -148.48339844 514.4609375 C-147.88043945 515.42773438 -147.27748047 516.39453125 -146.65625 517.390625 C-146.11806641 518.23657227 -145.57988281 519.08251953 -145.02539062 519.95410156 C-144.68701172 520.62924805 -144.34863281 521.30439453 -144 522 C-144.33 522.66 -144.66 523.32 -145 524 C-158.40422108 512.62615509 -171.39250353 500.05009168 -182 486 C-182.79019531 485.00355469 -183.58039063 484.00710938 -184.39453125 482.98046875 C-217.82249793 440.72539933 -238.23725174 390.13475818 -246 337 C-246.26369385 335.30883057 -246.26369385 335.30883057 -246.53271484 333.58349609 C-247.29797903 327.31589612 -247.20633009 321.00041623 -247.23828125 314.6953125 C-247.24439454 313.66277155 -247.24439454 313.66277155 -247.25063133 312.60937119 C-247.27142457 308.9484056 -247.28574159 305.28747647 -247.29516602 301.62646484 C-247.30392379 298.65749945 -247.32455991 295.6890178 -247.35668945 292.72021484 C-247.55710479 273.76545323 -246.75098059 255.67052059 -243 237 C-242.77892075 235.88558533 -242.77892075 235.88558533 -242.55337524 234.74865723 C-241.73788093 230.73614085 -240.78864263 226.7725577 -239.75 222.8125 C-239.4519043 221.65580811 -239.15380859 220.49911621 -238.84667969 219.30737305 C-227.99894265 178.27352664 -208.80433115 139.93973812 -182 107 C-181.5875 106.49130371 -181.175 105.98260742 -180.75 105.45849609 C-175.18014008 98.62565346 -169.31625036 92.07856464 -163.3125 85.625 C-162.40431519 84.64406372 -162.40431519 84.64406372 -161.4777832 83.64331055 C-157.76773517 79.69701775 -153.8946467 76.06292028 -149.78393555 72.53662109 C-147.71237848 70.75225265 -145.73707055 68.87754698 -143.75 67 C-115.82771078 41.89987172 -82.05287824 23.888731 -47 11 C-46.20368164 10.70158203 -45.40736328 10.40316406 -44.58691406 10.09570312 C-34.92445312 6.50763331 -25.09121922 3.9273568 -15.0625 1.5625 C-13.91724854 1.29083008 -12.77199707 1.01916016 -11.59204102 0.73925781 C-10.52139404 0.4965918 -9.45074707 0.25392578 -8.34765625 0.00390625 C-7.38867432 -0.21450928 -6.42969238 -0.4329248 -5.44165039 -0.65795898 C-3 -1 -3 -1 0 0 Z M81 134 C81.20473658 136.69929015 81.42908988 139.39431296 81.6796875 142.08984375 C81.91881623 145.008964 82.08133004 147.8925835 82.1953125 150.81640625 C82.34997657 159.71730409 82.34997657 159.71730409 85.9921875 167.48046875 C88.29937963 169.01229303 90.40639714 170.04842216 93 171 C94.33877126 171.65567807 95.67401154 172.31884155 97 173 C96.63511834 158.90229936 91.31421711 143.82623265 81 134 Z M-202 188 C-201 190 -201 190 -201 190 Z " fill="#0A0A0A" transform="translate(247,5)"/>
<path d="M0 0 C62.17024032 -1.09479124 62.17024032 -1.09479124 88 5 C89.26610107 5.29108643 90.53220215 5.58217285 91.83666992 5.88208008 C99.32110555 7.68204824 105.76358652 9.91445041 112.1875 14.1875 C112.94160156 14.66944824 113.69570313 15.15139648 114.47265625 15.64794922 C124.69934686 22.26432137 134.16215754 29.60606743 143 38 C143.47969238 38.45246094 143.95938477 38.90492187 144.45361328 39.37109375 C166.16173297 59.96973384 166.16173297 59.96973384 167.29296875 69.45703125 C167.24076172 70.62298828 167.24076172 70.62298828 167.1875 71.8125 C167.16042969 72.60269531 167.13335937 73.39289063 167.10546875 74.20703125 C167.05326172 75.09455078 167.05326172 75.09455078 167 76 C163.30487372 77.97646289 160.11704694 79.27758802 156 80 C156.60996826 80.21615967 157.21993652 80.43231934 157.84838867 80.6550293 C160.63353466 81.65133092 163.41034436 82.66914866 166.1875 83.6875 C167.14720703 84.02716797 168.10691406 84.36683594 169.09570312 84.71679688 C175.9595587 87.25808596 180.63442852 89.73703664 183.80859375 96.6171875 C184.36959333 98.02942836 184.91155622 99.44933247 185.4375 100.875 C185.73043945 101.65166016 186.02337891 102.42832031 186.32519531 103.22851562 C194.44525136 125.49516337 199.27911418 149.39741606 199.0625 173.125 C199.05798828 174.08148438 199.05347656 175.03796875 199.04882812 176.0234375 C199.03720017 178.34902758 199.02086102 180.6744776 199 183 C192.87849569 181.70230913 189.48208632 177.63384135 185.6875 172.875 C184.91921875 171.91722656 184.1509375 170.95945313 183.359375 169.97265625 C182.58078125 168.99167969 181.8021875 168.01070312 181 167 C179.47925084 165.10409914 177.95842348 163.20826101 176.4375 161.3125 C175.29103301 159.87550532 174.1449484 158.43820494 173 157 C173.75529394 172.10587874 182.41713608 186.74691718 191.13134766 198.8347168 C195.14269911 204.44817597 198.2957788 208.96926122 197.53125 216.13671875 C197.3559375 217.08160156 197.180625 218.02648437 197 219 C196.8246875 220.16144531 196.649375 221.32289063 196.46875 222.51953125 C193.3599977 240.48737936 186.65010471 257.43411949 173 270 C172.34 270 171.68 270 171 270 C170.97494385 269.21351074 170.9498877 268.42702148 170.92407227 267.61669922 C170.80767134 264.03598506 170.68514513 260.4555055 170.5625 256.875 C170.50352539 255.01875 170.50352539 255.01875 170.44335938 253.125 C170.40146484 251.92617187 170.35957031 250.72734375 170.31640625 249.4921875 C170.27974854 248.39245605 170.24309082 247.29272461 170.20532227 246.15966797 C170.00316521 243.04870884 169.56710106 240.06355662 169 237 C168.69707031 238.24394531 168.39414062 239.48789063 168.08203125 240.76953125 C164.49644479 255.16107402 160.53706252 268.8014917 149 279 C148.34 279 147.68 279 147 279 C147.02320313 280.07378906 147.04640625 281.14757812 147.0703125 282.25390625 C147.08908624 283.69009715 147.1072847 285.12629565 147.125 286.5625 C147.14175781 287.26697266 147.15851563 287.97144531 147.17578125 288.69726562 C147.23279537 294.88329757 146.64143646 300.07131216 142.5 304.9375 C139.00532162 307.52424723 135.65450842 307.6472188 131.40625 307.4296875 C127.87602819 306.79929075 125.67269623 305.3386092 123 303 C120.27326816 298.90990224 120.16368568 295.7990373 121 291 C124.0562963 283.81029857 130.59787165 280.55181714 137.171875 277.0546875 C141.31421166 274.04519981 141.70846555 270.61685435 142.59423828 265.7043457 C142.82989502 263.9577063 142.82989502 263.9577063 143.0703125 262.17578125 C143.24433594 260.90025391 143.41835938 259.62472656 143.59765625 258.31054688 C143.68418457 257.6543335 143.77071289 256.99812012 143.85986328 256.32202148 C144.12573767 254.30690903 144.40002804 252.29307899 144.67578125 250.27929688 C145.6368784 243.66186252 145.6368784 243.66186252 146 237 C145.74943848 237.49177734 145.49887695 237.98355469 145.24072266 238.49023438 C134.78907095 258.91006002 123.45649701 279.63566743 106 295 C105.41476562 295.52335937 104.82953125 296.04671875 104.2265625 296.5859375 C99.16748546 300.40786033 93.70109421 300.83252803 87.54663086 301.28100586 C83.6167415 301.57754789 83.6167415 301.57754789 80.13671875 303.2734375 C78.81476189 305.28135823 77.97226627 307.25062051 77.125 309.5 C75.8970986 312.3131771 75.06934174 313.93065826 72.875 316.125 C67.50284846 317.76000264 62.45106041 317.10261567 57.3515625 314.80859375 C55.18076617 313.60678064 53.0755971 312.3586638 51 311 C51.49371094 311.97582031 51.98742187 312.95164062 52.49609375 313.95703125 C53.14333531 315.24213405 53.79046488 316.52729325 54.4375 317.8125 C54.76298828 318.45509766 55.08847656 319.09769531 55.42382812 319.75976562 C58.1316073 325.14740872 59.41933096 328.91970106 59 335 C57.3353516 338.66222649 55.557047 341.0936088 52 343 C49.18914309 342.74988138 46.72947438 342.3640187 44 341.75 C42.48133965 341.44228477 40.96179101 341.13892253 39.44140625 340.83984375 C38.69262207 340.69144043 37.94383789 340.54303711 37.17236328 340.39013672 C32.48857197 339.54897033 27.74567769 339.26517274 23 339 C22.93941406 338.02417969 22.87882813 337.04835938 22.81640625 336.04296875 C22.73261719 334.77066406 22.64882813 333.49835938 22.5625 332.1875 C22.48128906 330.92292969 22.40007812 329.65835937 22.31640625 328.35546875 C22.12815453 325.00818107 22.12815453 325.00818107 21 322 C20.61908203 322.95712891 20.61908203 322.95712891 20.23046875 323.93359375 C19.71419922 325.17302734 19.71419922 325.17302734 19.1875 326.4375 C18.85105469 327.26121094 18.51460937 328.08492188 18.16796875 328.93359375 C17 331 17 331 14 332 C9.46620227 331.02408083 5.30308209 329.51353562 2.234375 325.94921875 C1.03188677 324.00381394 -0.04267686 322.07587965 -1 320 C-2.61177969 323.22355939 -2.60887273 326.51517524 -2 330 C-0.55541645 332.31335408 1.10250881 334.00763425 3 336 C3 336.66 3 337.32 3 338 C-2.44915409 336.89169747 -5.84015388 335.89985574 -10 332 C-8.01306021 339.40791702 -8.01306021 339.40791702 -3 345 C1.51650505 346.50550168 6.11136113 346.33770044 10.84765625 346.5234375 C11.88792969 346.68070312 12.92820312 346.83796875 14 347 C14.99 348.485 14.99 348.485 16 350 C17.32 350 18.64 350 20 350 C19.67 352.31 19.34 354.62 19 357 C15.17902761 356.46930939 12.93828597 355.50298434 10 353 C10.33 354.98 10.66 356.96 11 359 C16.89346704 360.40164785 16.89346704 360.40164785 22.25 358 C25.26669367 355.07397199 27.10182866 351.72333608 29 348 C35.56503266 350.35418916 41.1646648 354.01219927 46 359 C47.04684564 362.04422712 47.3043601 364.71306798 47.56640625 367.9140625 C48.96793515 377.88890786 57.41317187 386.07562092 63.65527344 393.50610352 C76.96935737 409.43583393 87.7184148 426.41090142 86 448 C83.66345082 459.05521557 78.18104249 467.45085636 69 474 C62.50956401 477.97373632 55.44912796 477.67799392 48 477 C45.0703125 475.98046875 45.0703125 475.98046875 43 475 C42.59375 472.80078125 42.59375 472.80078125 43 470 C45.16448775 468.12985879 47.10319582 466.68487974 49.5 465.1875 C50.12003906 464.78080078 50.74007812 464.37410156 51.37890625 463.95507812 C52.90921069 462.95449445 54.45336222 461.97514662 56 461 C53.03 461.33 50.06 461.66 47 462 C48.46626981 457.57661622 50.91444234 454.32137059 53.8125 450.75 C57.77316536 445.7539178 61.18021566 440.74345546 64 435 C63.64550781 435.4125 63.29101562 435.825 62.92578125 436.25 C55.40596574 444.40708801 45.71370598 450.18984761 35 453 C34.34 453 33.68 453 33 453 C34.10426464 449.78759378 35.51827927 447.20649617 37.4375 444.4375 C42.00695402 437.23755909 43.8483755 428.80510196 42.56640625 420.37109375 C40.55680347 411.95848075 36.22956599 404.45073592 28.8984375 399.61328125 C23.43444479 396.8619775 18.04368084 395.88693245 12 397 C9.21056842 398.13063917 6.64549072 399.41712554 4.03125 400.90625 C2 402 2 402 0 402 C0.33 399.36 0.66 396.72 1 394 C-2.95425081 392.73636707 -2.95425081 392.73636707 -7 392 C-9.50041272 393.20320443 -9.50041272 393.20320443 -11 395 C-12.125 388.25 -12.125 388.25 -11 386 C-14.96 386.66 -18.92 387.32 -23 388 C-21 384 -21 384 -19 381 C-24.52677733 380.80607799 -28.75614911 381.2520497 -34 383 C-33.855625 382.32195312 -33.71125 381.64390625 -33.5625 380.9453125 C-30.98446819 369.37558076 -30.98446819 369.37558076 -33.75 358.25 C-35.20164239 356.15318322 -36.6992363 354.08710816 -38.25 352.0625 C-40.80946319 347.58343941 -40.65320831 343.81910957 -39.48046875 338.7578125 C-39.24263672 337.88769531 -39.24263672 337.88769531 -39 337 C-39.90492188 337.72316406 -39.90492188 337.72316406 -40.828125 338.4609375 C-42.02695313 339.40839844 -42.02695313 339.40839844 -43.25 340.375 C-44.03890625 341.00148438 -44.8278125 341.62796875 -45.640625 342.2734375 C-48 344 -48 344 -50.171875 344.9765625 C-52.52546389 346.29416995 -52.92534768 347.56292236 -54 350 C-54.95286737 351.31118797 -55.93339515 352.60262286 -56.9375 353.875 C-61.39553281 359.7248089 -64.09978572 365.16444674 -64.25 372.5625 C-64.28867188 373.70912109 -64.28867188 373.70912109 -64.328125 374.87890625 C-63.9127802 377.56381372 -63.14872537 378.38102951 -61 380 C-59.88625 380.28875 -58.7725 380.5775 -57.625 380.875 C-53.28357249 382.22233957 -51.94340454 383.55406297 -49 387 C-48.38125 387.70253906 -47.7625 388.40507812 -47.125 389.12890625 C-42.20375146 394.9356067 -36.9295052 401.52699572 -35 409 C-36.33203125 412.16015625 -36.33203125 412.16015625 -38 415 C-38.50095023 418.12693772 -38.50095023 418.12693772 -38 421 C-35.87021107 423.67058173 -33.72349459 424.64511751 -30.5625 425.8125 C-26.13147507 427.72180343 -24.0763514 429.50123864 -22 434 C-20.54586887 441.64562028 -21.10773121 449.25990966 -21.4375 457 C-21.49083037 458.36065385 -21.54356964 459.72133101 -21.59570312 461.08203125 C-21.72467091 464.38829618 -21.85960554 467.69420386 -22 471 C-23.65 471.66 -25.3 472.32 -27 473 C-26.4304201 479.43828704 -23.38682392 484.15162242 -20.23828125 489.63476562 C-19.83996094 490.35212891 -19.44164062 491.06949219 -19.03125 491.80859375 C-18.66580078 492.44595459 -18.30035156 493.08331543 -17.92382812 493.73999023 C-15.71861769 499.13471353 -15.93668571 504.4204307 -16.55859375 510.11328125 C-16.62659683 510.76773727 -16.69459991 511.4221933 -16.7646637 512.09648132 C-16.98090985 514.16943567 -17.20824207 516.24094763 -17.4375 518.3125 C-19.55906181 533.76737011 -19.55906181 533.76737011 -18 549.125 C-17.814375 549.87007812 -17.62875 550.61515625 -17.4375 551.3828125 C-17.293125 551.91648437 -17.14875 552.45015625 -17 553 C-16.97164063 552.44054687 -16.94328125 551.88109375 -16.9140625 551.3046875 C-15.82509029 542.15143462 -10.4464373 536.07484845 -5 529 C-4.34 528.01 -3.68 527.02 -3 526 C-2.34 526 -1.68 526 -1 526 C-0.731875 527.258125 -0.46375 528.51625 -0.1875 529.8125 C3.98397504 548.40796815 10.66878539 566.62124815 27.3671875 577.47265625 C40.54372764 585.11661351 53.87338978 588.24224109 69 588 C67.97261719 587.64808594 66.94523438 587.29617188 65.88671875 586.93359375 C45.53436125 579.76765234 30.81386104 568.2566426 21.3984375 548.66796875 C17.56790687 539.40525286 15.83582613 530.01460618 16 520 C16.66 520 17.32 520 18 520 C19.151762 521.64155769 20.22134461 523.34112397 21.25 525.0625 C29.34794091 538.04913625 38.96489205 544.37486232 52.87890625 550.24609375 C56.86065422 551.92761004 60.79155024 553.69077293 64.6875 555.5625 C65.78449219 556.07941406 66.88148438 556.59632813 68.01171875 557.12890625 C73.09145677 560.30955267 76.08968579 564.79206931 79 570 C80.32862257 561.29191952 79.91661372 555.75300014 75.3125 548.25 C72.23164529 545.25241164 68.88730134 543.73865626 65 542 C63.66389474 541.33890625 62.32975247 540.67378083 61 540 C66.06353937 538.44709277 71.06543747 537.37117423 76.3125 536.625 C77.17061279 536.5005249 78.02872559 536.3760498 78.9128418 536.24780273 C85.64528445 535.32864626 92.39003746 534.66413073 99.15625 534.05859375 C100.065457 533.97633545 100.974664 533.89407715 101.91142273 533.80932617 C106.51360531 533.39500215 111.11634992 532.99632215 115.72192383 532.62158203 C131.71675408 531.25644467 148.86343866 529.6150065 161 518 C168.06289488 508.85767414 172.69968134 498.64709123 177 488 C176.67 487.67 176.34 487.34 176 487 C170.81228679 491.48374378 165.87878582 496.0077533 161.375 501.1875 C155.23627439 508.14760439 148.30018948 514.45804822 138.73046875 515.28125 C131.76731841 515.45922189 126.29502873 515.02161379 120 512 C121.48575135 509.0284973 123.52389987 508.95397158 126.625 507.875 C152.85384947 498.00331048 167.61402499 481.8184514 180 457 C180.36810791 456.26394531 180.73621582 455.52789062 181.11547852 454.76953125 C181.40737061 454.18558594 181.6992627 453.60164063 182 453 C190.22048748 462.42176215 189.95136815 478.76014325 189.21875 490.56445312 C186.59289763 519.80050589 167.40778662 544.1582864 145.73974609 562.58496094 C132.03464965 573.73213172 116.72337916 582.57761473 101.1875 590.875 C100.32801758 591.3397876 99.46853516 591.8045752 98.58300781 592.28344727 C89.69303827 596.9514503 80.90634972 599.26287691 71 600.625 C70.175 600.74617187 69.35 600.86734375 68.5 600.9921875 C32.67534079 606.14198226 -2.17422762 601.8704583 -34 584 C-35.11632812 583.37351562 -36.23265625 582.74703125 -37.3828125 582.1015625 C-72.53145251 561.35116056 -97.08040524 527.79007278 -107.38183594 488.42871094 C-107.58583008 487.62723633 -107.78982422 486.82576172 -108 486 C-108.18079102 485.30165039 -108.36158203 484.60330078 -108.54785156 483.88378906 C-113.60944982 463.26507169 -113.2166076 437.53053176 -108 417 C-107.82839355 416.30100586 -107.65678711 415.60201172 -107.47998047 414.88183594 C-100.59061874 387.50909039 -86.3458173 364.33196091 -67 344 C-66.03513672 342.93845703 -66.03513672 342.93845703 -65.05078125 341.85546875 C-41.23899472 316.49410826 -6.64128993 304.49564214 26.9375 300.0625 C65.41846766 294.94068994 102.40164686 276.99066756 126.8125 246.0625 C128.58469077 243.73791733 130.30397725 241.38059433 132 239 C132.38994141 238.45827148 132.77988281 237.91654297 133.18164062 237.35839844 C155.4044029 206.03073953 164.85197398 166.11972292 158.875 128.125 C158.33129374 125.06253826 157.69208071 122.0321547 157 119 C156.72591309 117.77651855 156.72591309 117.77651855 156.44628906 116.52832031 C147.7448917 79.1937533 123.97671609 45.12127971 91.40234375 24.58203125 C62.39814174 7.13109125 33.34632594 1.70133453 0 1 C0 0.67 0 0.34 0 0 Z " fill="#0B0B0B" transform="translate(276,0)"/>
<path d="M0 0 C3.77576087 2.15464615 7.12818724 4.57053429 10.5 7.3125 C11.4178125 8.05113281 12.335625 8.78976563 13.28125 9.55078125 C19.91771075 15.52931701 23.86894875 22.59895342 28.25 30.3125 C28.92494124 31.4957018 29.59990894 32.67888851 30.27490234 33.86206055 C32.19462884 37.23500142 34.09850239 40.61674745 36 44 C36.44956055 44.7940625 36.89912109 45.588125 37.36230469 46.40625 C49.39656581 67.78249851 58.97030094 90.8582698 67 114 C67.34901367 115.00450195 67.69802734 116.00900391 68.05761719 117.04394531 C78.51552425 147.53091308 86.03512746 179.80713015 86.23828125 212.15234375 C86.246353 213.40592178 86.25442474 214.65949982 86.26274109 215.95106506 C86.27652074 218.6027488 86.28755009 221.2543111 86.29516602 223.90600586 C86.30391651 226.56366622 86.32688386 229.22004758 86.35668945 231.87768555 C86.61603751 255.07847003 84.72199182 277.62595298 78.8125 300.125 C78.51698242 301.27129883 78.22146484 302.41759766 77.91699219 303.59863281 C66.94672864 344.83638668 46.76426975 381.31166791 21 415 C22.28822792 415.11597445 22.28822792 415.11597445 23.7578125 413.296875 C31.57263013 404.88885339 38.30133571 395.75277243 45.1171875 386.52929688 C47.9720568 382.69417681 50.89260232 378.91068129 53.8125 375.125 C58.07265162 369.58436632 62.21132658 363.97769603 66.2409668 358.26757812 C71.33834418 351.06342389 76.67909239 344.03968876 82 337 C82.33 337.66 82.66 338.32 83 339 C81.91113281 341.51171875 81.91113281 341.51171875 80.203125 344.6875 C79.89866455 345.25748718 79.5942041 345.82747437 79.28051758 346.41473389 C78.27930773 348.28148092 77.26551998 350.14100358 76.25 352 C75.90642456 352.63425903 75.56284912 353.26851807 75.2088623 353.92199707 C60.21180816 381.60711569 43.22382746 410.00953825 18.79296875 430.4609375 C16.93019435 432.05992032 15.21810463 433.74714718 13.5 435.5 C9.86184814 439.18833327 6.13704838 442.87105996 2 446 C1.34 446 0.68 446 0 446 C2.7002851 435.35915051 6.14557294 424.94730569 9.5 414.5 C10.14866801 412.47392469 10.79718318 410.44780045 11.44555664 408.42163086 C19.92658416 381.93587112 28.46384184 355.46803202 37 329 C36.0465909 330.42974223 35.0932314 331.85951755 34.13989258 333.28930664 C33.34353142 334.48361046 33.34353142 334.48361046 32.53108215 335.70204163 C31.62414012 337.06324555 30.71814731 338.42508401 29.81425476 339.78831482 C14.10253538 363.41522938 14.10253538 363.41522938 4 367 C1.01029519 366.64827002 0.17288535 366.17288535 -2 364 C-4.34934265 345.98837302 11.80938448 326.72253764 22.09765625 313.25390625 C26.13540881 308.10838063 30.42177706 303.22241343 34.828125 298.390625 C36.85407556 296.16062186 38.83935616 293.90170443 40.8125 291.625 C43.1158726 288.97879985 45.46707319 286.43160974 48 284 C26.24762555 287.56596302 12.59919547 306.03744873 -0.25 322.375 C-9.93060615 334.59676526 -9.93060615 334.59676526 -16 337 C-18.6875 336.75 -18.6875 336.75 -21 336 C-23.15040057 331.69919885 -21.55322923 326.00307133 -20.3203125 321.5390625 C-12.37639785 299.81632243 7.36759403 281.77966774 27.95849609 272.07714844 C37.98705246 267.64389177 48.18457482 265.5259387 59 264 C44.17372302 258.84849698 28.13780135 260.13612625 13.87890625 266.53125 C-7.32753246 277.35027436 -17.63336358 299.04157629 -24.90908813 320.70706177 C-26.94953403 327.20284782 -28.79133705 333.75591903 -30.625 340.3125 C-39.85788634 373.19419106 -39.85788634 373.19419106 -47 381 C-47.66 381 -48.32 381 -49 381 C-49.03867187 379.35064453 -49.03867187 379.35064453 -49.078125 377.66796875 C-49.73505686 358.21573129 -56.58954651 348.05775286 -70.28857422 334.69604492 C-70.8817041 334.11701416 -71.47483398 333.5379834 -72.0859375 332.94140625 C-72.6226709 332.42263916 -73.1594043 331.90387207 -73.71240234 331.36938477 C-75.82840856 329.11897163 -76.01906768 327.83156883 -76.375 324.6875 C-76 321 -76 321 -74.0625 318.4375 C-65.39320445 311.53744844 -55.93121619 306.80110328 -46 302 C-58.58234411 298.56624218 -70.04566845 301.06565885 -81.21875 307.22265625 C-82.81882888 308.13745545 -84.41045986 309.06700905 -86 310 C-86.66 310 -87.32 310 -88 310 C-84.02333048 299.33953851 -76.41365102 288.91209954 -66 284 C-52.57265144 280.01248437 -39.64356902 286.69530249 -28 293 C-27.92523438 292.20078125 -27.85046875 291.4015625 -27.7734375 290.578125 C-26.128274 276.83617104 -20.6359945 267.720968 -11 258 C-10.42378906 257.38640625 -9.84757812 256.7728125 -9.25390625 256.140625 C-5.17320811 251.87399577 -0.66832174 248.21183741 3.91796875 244.50390625 C24.10069429 228.1070405 40.10283734 212.91205545 49 188 C48.67 187.67 48.34 187.34 48 187 C47.61255615 187.41773682 47.2251123 187.83547363 46.82592773 188.26586914 C45.03116619 190.19936653 43.2343442 192.130938 41.4375 194.0625 C40.82841797 194.71927734 40.21933594 195.37605469 39.59179688 196.05273438 C37.73748154 198.0444064 35.86891634 200.02203514 34 202 C33.06631592 203.01876221 33.06631592 203.01876221 32.11376953 204.05810547 C31.51032715 204.6976416 30.90688477 205.33717773 30.28515625 205.99609375 C29.74898682 206.57415771 29.21281738 207.15222168 28.66040039 207.74780273 C27 209 27 209 23 209 C22.14530052 206.12473628 21.94848077 203.90936125 22.3046875 200.9375 C22.39331055 200.15165527 22.48193359 199.36581055 22.57324219 198.55615234 C22.7226123 197.29085693 22.7226123 197.29085693 22.875 196 C25.5737633 170.60122939 25.18550311 146.50420387 19.50146484 121.45068359 C17.45496804 112.05520046 17.45496804 112.05520046 20 107 C22.89088505 106.88200469 24.38011727 106.90497089 27 108 C33.21167093 114.29199426 36.57466492 122.99500445 40 131 C46.06464086 110.25141996 39.48289019 84.75879344 30 66 C24.88580081 56.97187286 18.31524651 49.31524651 11 42 C11.2165625 43.32451172 11.2165625 43.32451172 11.4375 44.67578125 C14.56064461 64.86777872 14.56064461 64.86777872 11 71 C9.68 71 8.36 71 7 71 C0.66846244 61.42484689 -2.58598514 49.45441111 -3 38 C-3.0515625 36.7315625 -3.103125 35.463125 -3.15625 34.15625 C-3.46320561 22.52705468 -2.00577067 11.43766847 0 0 Z M55 142 C53.64721885 143.98689731 52.31431695 145.98745218 51 148 C50 149 50 149 46.9375 149.375 C41.87446387 148.89280608 39.07222723 146.85523979 35 144 C34.34 143.67 33.68 143.34 33 143 C33.66 151.91 34.32 160.82 35 170 C36.32 168.35 37.64 166.7 39 165 C42.19750707 161.63458731 44.64990576 159.22926129 49.3125 158.4375 C52 159 52 159 54 162 C54.53916146 164.6602023 54.73370098 167.29262663 55 170 C57.68875524 166.48701324 60.0966275 162.8325518 62.5 159.12109375 C63.86714043 157.18787174 65.27199619 155.60971783 67 154 C66.113125 153.690625 65.22625 153.38125 64.3125 153.0625 C59.80928695 150.25861263 58.22642019 146.6991258 56 142 C55.67 142 55.34 142 55 142 Z M38 324 C39 326 39 326 39 326 Z " fill="#0E0E0E" transform="translate(483,60)"/>
<path d="M0 0 C0.33 0 0.66 0 1 0 C1.78392046 4.3129983 2.24490746 8.5566058 2.53515625 12.9296875 C2.66567383 14.86328125 2.66567383 14.86328125 2.79882812 16.8359375 C2.8867831 18.18228746 2.97467293 19.52864169 3.0625 20.875 C3.15402584 22.2448098 3.24582014 23.6146017 3.33789062 24.984375 C3.56123262 28.32275015 3.78184337 31.66128265 4 35 C3.54254395 34.59080322 3.08508789 34.18160645 2.61376953 33.76000977 C-1.84079767 29.84512375 -5.16268127 27.41225453 -11 26 C-14.86552795 27.28850932 -15.7976367 28.64411971 -17.8125 32.1875 C-18.4003125 33.5796875 -18.4003125 33.5796875 -19 35 C-19.66 35 -20.32 35 -21 35 C-21.35191406 34.22914063 -21.70382813 33.45828125 -22.06640625 32.6640625 C-24.6004865 26.98339703 -24.6004865 26.98339703 -28.95703125 22.82421875 C-31.05153895 22.2104874 -31.05153895 22.2104874 -34 22 C-34 21.34 -34 20.68 -34 20 C-32.989375 19.21625 -31.97875 18.4325 -30.9375 17.625 C-26.50129425 14.00931198 -24.16042969 9.49754998 -21.48046875 4.51171875 C-20 2 -20 2 -18 1 C-18.04125 2.010625 -18.0825 3.02125 -18.125 4.0625 C-17.99426157 8.18076052 -17.26749214 11.11830533 -16 15 C-11.07985036 14.54231166 -8.42694178 13.60268238 -5 10 C-3.14217834 6.7488121 -1.53175802 3.41549449 0 0 Z " fill="#232323" transform="translate(85,369)"/>
<path d="M0 0 C1.66928595 0.66008079 3.3353673 1.32827073 5 2 C6.27883057 2.4940332 6.27883057 2.4940332 7.58349609 2.99804688 C11.87126603 5.03867601 14.45208599 6.55702382 16.18066406 11.109375 C16.88752747 14.91223839 17.30915793 18.64520467 17.625 22.5 C17.77066406 23.80582031 17.91632813 25.11164063 18.06640625 26.45703125 C18.66019095 31.99336668 19.07063058 37.4296719 19 43 C7.67541275 35.45027517 3.65377646 21.55424286 1.01489258 8.85253906 C0.43791777 5.85962857 0 3.05382484 0 0 Z " fill="#252525" transform="translate(258,424)"/>
<path d="M0 0 C0.66 0.33 1.32 0.66 2 1 C-6.25 9.25 -14.5 17.5 -23 26 C-23.66 25.67 -24.32 25.34 -25 25 C-6.7961165 5.09708738 -6.7961165 5.09708738 0 0 Z " fill="#585858" transform="translate(222,332)"/>
<path d="M0 0 C0.33 0.66 0.66 1.32 1 2 C0.19555664 3.97119141 0.19555664 3.97119141 -1.08984375 6.3515625 C-1.54423828 7.20234375 -1.99863281 8.053125 -2.46679688 8.9296875 C-3.19479492 10.26386719 -3.19479492 10.26386719 -3.9375 11.625 C-4.65969727 12.97078125 -4.65969727 12.97078125 -5.39648438 14.34375 C-6.59058716 16.56643636 -7.79199381 18.78484826 -9 21 C-9.66 20.34 -10.32 19.68 -11 19 C-11.99 19 -12.98 19 -14 19 C-12.41845837 16.76954339 -10.83483359 14.54061577 -9.25 12.3125 C-8.8065625 11.68666016 -8.363125 11.06082031 -7.90625 10.41601562 C-5.37084895 6.85526857 -2.76994764 3.38477246 0 0 Z " fill="#676767" transform="translate(565,397)"/>
<path d="M0 0 C0.66 0.33 1.32 0.66 2 1 C-6.25 9.25 -14.5 17.5 -23 26 C-23 21.9180354 -20.91402472 20.31105191 -18.25 17.5 C-17.76426514 16.97825195 -17.27853027 16.45650391 -16.77807617 15.91894531 C-11.47305164 10.30195997 -5.77796828 5.12252685 0 0 Z " fill="#646464" transform="translate(107,304)"/>
<path d="M0 0 C0.66 0.33 1.32 0.66 2 1 C-6.25 9.25 -14.5 17.5 -23 26 C-23.66 25.67 -24.32 25.34 -25 25 C-10.69358182 9.36366394 -10.69358182 9.36366394 -4.55078125 4.296875 C-2.93678025 2.94713109 -1.46699069 1.50687865 0 0 Z " fill="#626262" transform="translate(102,73)"/>
<path d="M0 0 C-1.55603771 3.81936528 -3.95604931 6.26044438 -7 9 C-7.66 9 -8.32 9 -9 9 C-10.62514468 10.45833358 -10.62514468 10.45833358 -12 12 C-12.66 11.67 -13.32 11.34 -14 11 C-12.92173635 9.72486237 -11.83714481 8.45507431 -10.75 7.1875 C-10.14671875 6.47980469 -9.5434375 5.77210937 -8.921875 5.04296875 C-4.17782027 0 -4.17782027 0 0 0 Z " fill="#6A6A6A" transform="translate(106,122)"/>
<path d="M0 0 C0.33 0.66 0.66 1.32 1 2 C1.99 2.33 2.98 2.66 4 3 C1.69 7.29 -0.62 11.58 -3 16 C-3.66 15.67 -4.32 15.34 -5 15 C-3.35 10.05 -1.7 5.1 0 0 Z " fill="#5B5B5B" transform="translate(82,213)"/>
<path d="M0 0 C-1.95330868 1.03041513 -3.91281528 2.0490893 -5.875 3.0625 C-6.96554688 3.63097656 -8.05609375 4.19945312 -9.1796875 4.78515625 C-10.11039063 5.18605469 -11.04109375 5.58695313 -12 6 C-12.66 5.67 -13.32 5.34 -14 5 C-13.67 3.68 -13.34 2.36 -13 1 C-11.39796533 0.63631108 -9.79325797 0.28438048 -8.1875 -0.0625 C-7.29417969 -0.25972656 -6.40085938 -0.45695313 -5.48046875 -0.66015625 C-3 -1 -3 -1 0 0 Z " fill="#797979" transform="translate(247,5)"/>
<path d="M0 0 C0.99 0.33 1.98 0.66 3 1 C1.50829734 5.9723422 -0.60457417 10.41845739 -3 15 C-4.28497537 11.14507389 -3.4052209 9.59653164 -2.0625 5.8125 C-1.68222656 4.72582031 -1.30195313 3.63914062 -0.91015625 2.51953125 C-0.60980469 1.68808594 -0.30945313 0.85664063 0 0 Z " fill="#ACACAC" transform="translate(178,370)"/>
<path d="M0 0 C2.87583387 0.89013906 5.11623061 2.16388011 7.625 3.8125 C4.07257118 4.99664294 2.92669438 4.50785532 -0.5625 3.375 C-1.46355469 3.08753906 -2.36460937 2.80007813 -3.29296875 2.50390625 C-3.98003906 2.27574219 -4.66710937 2.04757812 -5.375 1.8125 C-2.375 -0.1875 -2.375 -0.1875 0 0 Z " fill="#898989" transform="translate(218.375,589.1875)"/>
<path d="M0 0 C0 0.33 0 0.66 0 1 C-1.5159375 1.309375 -1.5159375 1.309375 -3.0625 1.625 C-7.64907657 2.89800901 -10.6373197 5.74974974 -14 9 C-11.71647031 1.5266301 -7.6121741 -0.59703326 0 0 Z " fill="#676767" transform="translate(314,242)"/>
<path d="M0 0 C0 0.33 0 0.66 0 1 C-2.31 1 -4.62 1 -7 1 C-7 1.66 -7 2.32 -7 3 C-10.3 2.67 -13.6 2.34 -17 2 C-17 1.67 -17 1.34 -17 1 C-11.33357449 -0.22517308 -5.76291482 -0.09228867 0 0 Z " fill="#999999" transform="translate(262,13)"/>
<path d="M0 0 C0.6875 1.75 0.6875 1.75 1 4 C-0.4375 6.25 -0.4375 6.25 -2 8 C-2.33 7.34 -2.66 6.68 -3 6 C-3.99 6 -4.98 6 -6 6 C-4 4 -2 2 0 0 Z " fill="#4D4D4D" transform="translate(557,410)"/>
<path d="M0 0 C0.99 0.33 1.98 0.66 3 1 C1.87895467 2.31587941 0.75303035 3.62760353 -0.375 4.9375 C-1.00148438 5.66839844 -1.62796875 6.39929688 -2.2734375 7.15234375 C-4 9 -4 9 -6 10 C-4.6302836 6.00499382 -2.74277578 3.19990508 0 0 Z " fill="#636363" transform="translate(549,213)"/>
<path d="M0 0 C0.66 0 1.32 0 2 0 C0.44499019 3.81684226 -2.03595495 6.19195732 -5 9 C-5.66 8.67 -6.32 8.34 -7 8 C-5.88200014 6.66079162 -4.75538103 5.32877444 -3.625 4 C-2.68527344 2.88625 -2.68527344 2.88625 -1.7265625 1.75 C-1.15679687 1.1725 -0.58703125 0.595 0 0 Z " fill="#616161" transform="translate(410,348)"/>
<path d="M0 0 C0.66 0.33 1.32 0.66 2 1 C-0.97 3.97 -3.94 6.94 -7 10 C-7 6.04435836 -5.59478606 4.89133304 -3 2 C-2.01 1.34 -1.02 0.68 0 0 Z " fill="#666666" transform="translate(406,281)"/>
<path d="M0 0 C0.66 0 1.32 0 2 0 C2.33 1.65 2.66 3.3 3 5 C2.01 5.495 2.01 5.495 1 6 C0.59270772 8.32156597 0.25561323 10.6568787 0 13 C-0.33 13 -0.66 13 -1 13 C-1.07654536 8.48382401 -1.10228696 4.40914783 0 0 Z " fill="#6F6F6F" transform="translate(79,408)"/>
<path d="M0 0 C0.66 0.33 1.32 0.66 2 1 C2 1.99 2 2.98 2 4 C-2.455 5.485 -2.455 5.485 -7 7 C-7 6.34 -7 5.68 -7 5 C-5.46875 3.7109375 -5.46875 3.7109375 -3.5 2.375 C-2.8503125 1.92898437 -2.200625 1.48296875 -1.53125 1.0234375 C-1.0259375 0.68570313 -0.520625 0.34796875 0 0 Z " fill="#979797" transform="translate(269,142)"/>
<path d="M0 0 C2.72426311 2.35277269 3.8141763 4.62496331 5 8 C1.73539027 6.19587357 0.11070205 5.16605307 -2 2 C-1.34 2 -0.68 2 0 2 C0 1.34 0 0.68 0 0 Z " fill="#8D8D8D" transform="translate(98,521)"/>
<path d="M0 0 C0.33 0 0.66 0 1 0 C1 1.98 1 3.96 1 6 C-0.65 6.66 -2.3 7.32 -4 8 C-2.25 2.25 -2.25 2.25 0 0 Z " fill="#7A7A7A" transform="translate(66,370)"/>
<path d="M0 0 C0.33 0.66 0.66 1.32 1 2 C0.22265625 3.9453125 0.22265625 3.9453125 -0.9375 6.125 C-1.31777344 6.84945313 -1.69804688 7.57390625 -2.08984375 8.3203125 C-2.39019531 8.87460937 -2.69054687 9.42890625 -3 10 C-3.66 8.68 -4.32 7.36 -5 6 C-3.35 4.02 -1.7 2.04 0 0 Z " fill="#B0B0B0" transform="translate(565,397)"/>
<path d="M0 0 C0.66 1.32 1.32 2.64 2 4 C0.625 7.25 0.625 7.25 -1 10 C-1.66 9.67 -2.32 9.34 -3 9 C-2.01 6.03 -1.02 3.06 0 0 Z " fill="#9D9D9D" transform="translate(80,219)"/>
<path d="M0 0 C0.33 1.32 0.66 2.64 1 4 C1.66 4.33 2.32 4.66 3 5 C1.625 6.5 1.625 6.5 0 8 C-0.66 8 -1.32 8 -2 8 C-1.34 5.36 -0.68 2.72 0 0 Z " fill="#8D8D8D" transform="translate(485,498)"/>
<path d="M0 0 C0.33 0 0.66 0 1 0 C1.3125 2.75 1.3125 2.75 1 6 C-1.5 8.375 -1.5 8.375 -4 10 C-2.66666667 6.66666667 -1.33333333 3.33333333 0 0 Z " fill="#707070" transform="translate(85,369)"/>
</svg>
