<?xml version="1.0" encoding="UTF-8"?>
<svg version="1.1" xmlns="http://www.w3.org/2000/svg" width="1024" height="1024">
<path d="M0 0 C4.23659731 0.0113846 8.4729431 0.00462681 12.70953178 -0.0068779 C30.28614623 -0.04745017 47.68418336 0.07653556 65.15356445 2.26074219 C67.03869751 2.47972168 67.03869751 2.47972168 68.96191406 2.703125 C72.19975493 3.09901821 75.42589333 3.53952732 78.65356445 4.01074219 C79.81388184 4.17993164 80.97419922 4.34912109 82.16967773 4.5234375 C117.59670754 9.86286135 151.51493412 19.16672522 185.15356445 31.26074219 C186.04865723 31.57817383 186.94375 31.89560547 187.8659668 32.22265625 C196.76585243 35.38134183 205.36087912 39.04693585 213.8605957 43.15917969 C216.50265432 44.42844805 219.15592593 45.6726524 221.80981445 46.91699219 C243.387335 57.08215922 264.20207099 68.17591072 284.15356445 81.26074219 C285.46850006 82.11126325 286.78359795 82.9615335 288.09887695 83.81152344 C301.27681048 92.39487787 313.68706056 102.00903597 326.0012207 111.77636719 C329.51044381 114.55649784 333.08450353 117.24938597 336.67700195 119.92089844 C337.16426758 120.36304687 337.6515332 120.80519531 338.15356445 121.26074219 C338.15356445 121.92074219 338.15356445 122.58074219 338.15356445 123.26074219 C338.71430664 123.50308594 339.27504883 123.74542969 339.8527832 123.99511719 C342.61442078 125.51425229 344.65387887 127.36969475 346.96606445 129.51074219 C350.01620362 132.31687022 353.0814314 135.06109578 356.27856445 137.69824219 C357.70168945 138.96667969 357.70168945 138.96667969 359.15356445 140.26074219 C359.15356445 140.92074219 359.15356445 141.58074219 359.15356445 142.26074219 C359.81356445 142.26074219 360.47356445 142.26074219 361.15356445 142.26074219 C361.15356445 142.92074219 361.15356445 143.58074219 361.15356445 144.26074219 C361.7259082 144.50824219 362.29825195 144.75574219 362.88793945 145.01074219 C365.50367057 146.45390418 367.30129901 148.14290441 369.40356445 150.26074219 C370.46317383 151.31261719 370.46317383 151.31261719 371.54418945 152.38574219 C373.15356445 154.26074219 373.15356445 154.26074219 373.15356445 156.26074219 C373.81356445 156.26074219 374.47356445 156.26074219 375.15356445 156.26074219 C375.15356445 156.92074219 375.15356445 157.58074219 375.15356445 158.26074219 C375.81356445 158.26074219 376.47356445 158.26074219 377.15356445 158.26074219 C378.52856445 159.62402344 378.52856445 159.62402344 380.15356445 161.57324219 C384.03549515 166.16097847 388.10994917 170.55088261 392.2121582 174.94042969 C394.15356445 177.26074219 394.15356445 177.26074219 394.15356445 179.26074219 C394.81356445 179.26074219 395.47356445 179.26074219 396.15356445 179.26074219 C397.7121582 180.95605469 397.7121582 180.95605469 399.59106445 183.38574219 C400.30520508 184.30226562 401.0193457 185.21878906 401.75512695 186.16308594 C402.54661133 187.1853125 403.3380957 188.20753906 404.15356445 189.26074219 C405.01395884 190.34663517 405.87598368 191.43123796 406.73950195 192.51464844 C409.57269873 196.07476697 412.37274736 199.65957919 415.15356445 203.26074219 C415.57976074 203.81262207 416.00595703 204.36450195 416.44506836 204.93310547 C441.53655076 237.69115947 461.89551003 274.41018665 478.15356445 312.26074219 C478.49548828 313.05367676 478.83741211 313.84661133 479.18969727 314.66357422 C505.38849441 376.07896286 518.13193158 442.672585 517.66905975 509.30054474 C517.65323425 511.74933743 517.64429368 514.19808023 517.63677979 516.64691162 C517.55211247 540.37717021 516.97198044 563.79230423 513.15356445 587.26074219 C512.9362838 588.65840307 512.71982736 590.05619231 512.50415039 591.45410156 C507.37922856 624.26678132 499.5576125 657.42560081 487.15356445 688.26074219 C486.13980371 690.92229721 485.14735467 693.59167868 484.15356445 696.26074219 C483.6407813 697.62541485 483.12776356 698.9899994 482.61450195 700.35449219 C481.70886784 702.76637602 480.81994429 705.18196431 479.94262695 707.60449219 C477.48429095 714.27004751 474.60725697 720.57790579 471.37670898 726.89306641 C469.08697557 731.36937293 466.90767361 735.8829809 464.78930664 740.44287109 C460.65608147 749.33303684 456.19452862 757.84310164 451.15356445 766.26074219 C450.77135742 766.90060059 450.38915039 767.54045898 449.99536133 768.19970703 C448.43480033 770.81142639 446.87302534 773.42230463 445.2980957 776.02539062 C442.85190546 780.06877284 440.48465941 784.14982474 438.15356445 788.26074219 C437.49356445 788.26074219 436.83356445 788.26074219 436.15356445 788.26074219 C436.03803223 788.84412354 435.9225 789.42750488 435.8034668 790.02856445 C435.10758829 792.41865357 434.18733892 793.94939458 432.75512695 795.97558594 C432.2755957 796.66201172 431.79606445 797.3484375 431.30200195 798.05566406 C430.79926758 798.76271484 430.2965332 799.46976563 429.77856445 800.19824219 C428.79023297 801.60223913 427.80322054 803.00716567 426.81762695 804.41308594 C426.35259766 805.0729248 425.88756836 805.73276367 425.40844727 806.41259766 C424.34210035 807.98307356 423.3729613 809.61885038 422.42700195 811.26464844 C422.00676758 811.92335938 421.5865332 812.58207031 421.15356445 813.26074219 C420.49356445 813.26074219 419.83356445 813.26074219 419.15356445 813.26074219 C418.81131836 814.29714844 418.81131836 814.29714844 418.4621582 815.35449219 C416.86067998 818.91120801 414.64985519 821.75037182 412.21606445 824.76074219 C411.49604248 825.66518066 411.49604248 825.66518066 410.76147461 826.58789062 C406.80282878 831.53073017 402.7307516 836.37729131 398.59521484 841.17285156 C396.1112951 844.03475501 396.1112951 844.03475501 394.15356445 847.26074219 C393.49356445 847.26074219 392.83356445 847.26074219 392.15356445 847.26074219 C391.94344727 847.78925781 391.73333008 848.31777344 391.5168457 848.86230469 C389.59518789 852.24310096 387.01348053 854.83083632 384.34106445 857.63574219 C383.29143541 858.74635091 382.24324609 859.85832216 381.1965332 860.97167969 C380.68654785 861.51276367 380.1765625 862.05384766 379.65112305 862.61132812 C378.16210179 864.25133914 376.77540194 865.94548633 375.3918457 867.67480469 C374.65321289 868.52816406 373.91458008 869.38152344 373.15356445 870.26074219 C372.49356445 870.26074219 371.83356445 870.26074219 371.15356445 870.26074219 C371.15356445 870.92074219 371.15356445 871.58074219 371.15356445 872.26074219 C370.49356445 872.26074219 369.83356445 872.26074219 369.15356445 872.26074219 C369.15356445 872.92074219 369.15356445 873.58074219 369.15356445 874.26074219 C368.49356445 874.26074219 367.83356445 874.26074219 367.15356445 874.26074219 C367.15356445 874.92074219 367.15356445 875.58074219 367.15356445 876.26074219 C366.49356445 876.26074219 365.83356445 876.26074219 365.15356445 876.26074219 C365.15356445 876.92074219 365.15356445 877.58074219 365.15356445 878.26074219 C364.49356445 878.26074219 363.83356445 878.26074219 363.15356445 878.26074219 C363.15356445 878.92074219 363.15356445 879.58074219 363.15356445 880.26074219 C361.8605957 881.56542969 361.8605957 881.56542969 359.96606445 883.13574219 C357.17962666 885.49195798 354.45686069 887.89120346 351.7980957 890.38964844 C351.21761475 890.93443848 350.63713379 891.47922852 350.0390625 892.04052734 C348.87186783 893.13957766 347.70792078 894.2420879 346.54736328 895.34814453 C342.37380122 899.26074219 342.37380122 899.26074219 340.15356445 899.26074219 C340.15356445 899.92074219 340.15356445 900.58074219 340.15356445 901.26074219 C338.16902721 902.96701612 336.1752004 904.55865505 334.09106445 906.13574219 C332.80393346 907.12575368 331.51749881 908.11667102 330.23168945 909.10839844 C329.22525391 909.88207764 329.22525391 909.88207764 328.19848633 910.67138672 C325.52202357 912.75158879 322.89048781 914.88456066 320.25805664 917.02001953 C303.91631595 930.26074219 303.91631595 930.26074219 300.15356445 930.26074219 C300.15356445 930.92074219 300.15356445 931.58074219 300.15356445 932.26074219 C298.09106445 933.85449219 298.09106445 933.85449219 295.15356445 935.76074219 C294.61376953 936.11185059 294.07397461 936.46295898 293.51782227 936.82470703 C291.73512286 937.97866401 289.94495497 939.1203319 288.15356445 940.26074219 C287.28634766 940.81810059 287.28634766 940.81810059 286.40161133 941.38671875 C258.1269022 959.53200551 229.09236873 974.92387149 197.96704102 987.51708984 C195.47145954 988.54045295 193.0030442 989.62501682 190.52856445 990.69824219 C177.54726074 996.11309539 164.05484692 1000.66000915 150.48168945 1004.34277344 C147.48633823 1005.16895599 144.52769982 1006.07957807 141.56298828 1007.00830078 C120.94976249 1013.36567391 99.45732798 1017.07353287 78.15356445 1020.26074219 C77.43378418 1020.36870117 76.71400391 1020.47666016 75.97241211 1020.58789062 C71.37725441 1021.25870008 66.7727921 1021.79081857 62.15356445 1022.26074219 C61.29875488 1022.35097656 60.44394531 1022.44121094 59.56323242 1022.53417969 C41.40331002 1024.39576827 23.38388624 1024.48846793 5.15356445 1024.26074219 C6.41940631 1020.4632166 7.88358123 1019.81227237 11.15356445 1017.57324219 C15.88684922 1014.2469834 20.16449828 1010.68988217 24.3762207 1006.72949219 C26.15356445 1005.26074219 26.15356445 1005.26074219 28.15356445 1005.26074219 C28.15356445 1004.60074219 28.15356445 1003.94074219 28.15356445 1003.26074219 C28.81356445 1003.26074219 29.47356445 1003.26074219 30.15356445 1003.26074219 C30.15356445 1002.60074219 30.15356445 1001.94074219 30.15356445 1001.26074219 C30.81356445 1001.26074219 31.47356445 1001.26074219 32.15356445 1001.26074219 C32.44231445 1000.66261719 32.73106445 1000.06449219 33.02856445 999.44824219 C34.15356445 997.26074219 34.15356445 997.26074219 36.15356445 994.26074219 C36.81356445 994.26074219 37.47356445 994.26074219 38.15356445 994.26074219 C38.44231445 993.49761719 38.73106445 992.73449219 39.02856445 991.94824219 C40.15356445 989.26074219 40.15356445 989.26074219 42.15356445 986.26074219 C42.81356445 986.26074219 43.47356445 986.26074219 44.15356445 986.26074219 C44.4268457 985.52339844 44.70012695 984.78605469 44.98168945 984.02636719 C46.08285761 981.42761034 47.33935447 979.34864744 48.90356445 977.01074219 C51.69883417 972.43417314 53.62225763 967.79409858 55.40356445 962.76074219 C55.64945313 962.07334961 55.8953418 961.38595703 56.14868164 960.67773438 C59.34997049 951.30347751 60.51741323 942.33959627 60.46606445 932.44824219 C60.46405029 931.39886475 60.46203613 930.3494873 60.45996094 929.26831055 C60.70372004 917.00142566 60.70372004 917.00142566 56.15356445 906.26074219 C55.90864258 906.97875 55.6637207 907.69675781 55.41137695 908.43652344 C49.65435012 924.37753222 41.47027516 938.8524344 31.15356445 952.26074219 C30.4987207 953.13859375 29.84387695 954.01644531 29.16918945 954.92089844 C5.60067707 985.64761603 -30.65255424 1003.84152035 -68.56152344 1008.95117188 C-70.40851778 1009.20141109 -72.25079058 1009.48634776 -74.09106445 1009.78198242 C-78.15805623 1010.30046967 -82.11554005 1010.45807693 -86.2097168 1010.49902344 C-87.00057175 1010.50709518 -87.7914267 1010.51516693 -88.60624695 1010.52348328 C-90.27784079 1010.53725126 -91.94946189 1010.54800565 -93.62109375 1010.5559082 C-95.29338101 1010.56733027 -96.96563472 1010.58762341 -98.63769531 1010.61743164 C-115.44884269 1010.91599255 -130.31661567 1007.85086471 -146.15893555 1002.26074219 C-148.09197394 1001.59246693 -150.02557168 1000.92580753 -151.9597168 1000.26074219 C-152.91934326 999.92913086 -153.87896973 999.59751953 -154.86767578 999.25585938 C-157.96646672 998.22064326 -161.08349824 997.27475818 -164.21362305 996.33886719 C-171.16179198 994.22113341 -177.90594924 991.67997323 -184.65893555 989.01074219 C-185.5774379 988.64891846 -185.5774379 988.64891846 -186.51449585 988.27978516 C-194.83131253 984.9944229 -202.91223758 981.50000657 -210.82299805 977.33886719 C-214.8464041 975.22518843 -218.95729597 973.31691633 -223.07495117 971.39501953 C-234.75434517 965.93114462 -245.95950011 959.86333657 -257.05664062 953.30126953 C-258.29699864 952.58016656 -259.56316551 951.90237721 -260.84643555 951.26074219 C-260.84643555 950.60074219 -260.84643555 949.94074219 -260.84643555 949.26074219 C-261.41177002 949.1542334 -261.97710449 949.04772461 -262.55957031 948.93798828 C-265.22762833 948.14785345 -267.11747762 946.96147182 -269.4362793 945.42480469 C-270.30317383 944.85503906 -271.17006836 944.28527344 -272.06323242 943.69824219 C-272.96106445 943.10011719 -273.85889648 942.50199219 -274.78393555 941.88574219 C-276.5634096 940.71054519 -278.34334349 939.53604411 -280.1237793 938.36230469 C-280.91002686 937.83975098 -281.69627441 937.31719727 -282.50634766 936.77880859 C-284.18187907 935.69185457 -285.89996302 934.66942701 -287.64160156 933.69189453 C-288.36919678 933.21961426 -289.09679199 932.74733398 -289.84643555 932.26074219 C-289.84643555 931.60074219 -289.84643555 930.94074219 -289.84643555 930.26074219 C-290.52061523 930.03386719 -291.19479492 929.80699219 -291.8894043 929.57324219 C-295.66581889 927.89705288 -298.8173714 925.66969678 -302.15893555 923.26074219 C-302.80411133 922.80957031 -303.44928711 922.35839844 -304.11401367 921.89355469 C-305.73144809 920.73653282 -307.29436799 919.50407642 -308.84643555 918.26074219 C-308.84643555 917.60074219 -308.84643555 916.94074219 -308.84643555 916.26074219 C-309.62180664 915.93203125 -309.62180664 915.93203125 -310.4128418 915.59667969 C-313.83110728 913.72020008 -316.74602197 911.31863399 -319.78393555 908.88574219 C-320.39172852 908.40363281 -320.99952148 907.92152344 -321.62573242 907.42480469 C-322.81505828 906.48052871 -324.0018339 905.53303002 -325.18579102 904.58203125 C-326.70151025 903.37605176 -328.24346225 902.20323193 -329.7878418 901.03417969 C-330.8068457 900.15632812 -330.8068457 900.15632812 -331.84643555 899.26074219 C-331.84643555 898.60074219 -331.84643555 897.94074219 -331.84643555 897.26074219 C-332.37495117 897.04933594 -332.9034668 896.83792969 -333.44799805 896.62011719 C-336.80393385 894.71805585 -339.43998481 892.14860993 -342.22143555 889.51074219 C-342.85629883 888.91310059 -343.49116211 888.31545898 -344.14526367 887.69970703 C-350.30463062 881.8558695 -356.33341482 875.87935713 -362.34643555 869.88574219 C-363.27762207 868.95922852 -364.20880859 868.03271484 -365.16821289 867.078125 C-379.84643555 852.36551473 -379.84643555 852.36551473 -379.84643555 849.26074219 C-380.50643555 849.26074219 -381.16643555 849.26074219 -381.84643555 849.26074219 C-383.67347016 847.10830435 -385.39561512 844.94712049 -387.09643555 842.69824219 C-388.08601237 841.40947591 -389.07688626 840.12170449 -390.0690918 838.83496094 C-390.54620605 838.21540527 -391.02332031 837.59584961 -391.51489258 836.95751953 C-393.11973306 834.91248078 -394.80684381 832.95320268 -396.53393555 831.01074219 C-398.84643555 828.26074219 -398.84643555 828.26074219 -398.84643555 826.26074219 C-399.50643555 826.26074219 -400.16643555 826.26074219 -400.84643555 826.26074219 C-402.17504883 824.73193359 -402.17504883 824.73193359 -403.66674805 822.61230469 C-404.20170898 821.85433594 -404.73666992 821.09636719 -405.2878418 820.31542969 C-405.84342773 819.51363281 -406.39901367 818.71183594 -406.97143555 817.88574219 C-407.53475586 817.09167969 -408.09807617 816.29761719 -408.6784668 815.47949219 C-412.84643555 809.52525112 -412.84643555 809.52525112 -412.84643555 807.26074219 C-413.50643555 807.26074219 -414.16643555 807.26074219 -414.84643555 807.26074219 C-416.1159668 805.55761719 -416.1159668 805.55761719 -417.65893555 803.01074219 C-421.67944584 796.49852908 -425.85304029 790.09460475 -430.05078125 783.6953125 C-438.88829629 770.15596643 -446.569395 756.11811218 -453.68969727 741.61132812 C-454.48372866 739.99779198 -455.2824873 738.38657615 -456.08520508 736.77734375 C-468.71061992 711.43140737 -479.30813832 685.07520007 -486.8581543 657.76464844 C-487.71949828 654.71079249 -488.65103031 651.68707105 -489.59838867 648.65917969 C-502.29682084 607.41913039 -507.29288225 562.97186188 -507.22143555 519.94824219 C-507.2215564 518.81298096 -507.22167725 517.67771973 -507.22180176 516.50805664 C-507.18794505 493.91224605 -505.55264036 471.68011322 -502.84643555 449.26074219 C-502.68427503 447.87732274 -502.52247401 446.4938611 -502.36108398 445.11035156 C-498.40984657 411.90653486 -492.44135582 377.71150036 -480.84643555 346.26074219 C-480.43264648 345.09414063 -480.01885742 343.92753906 -479.5925293 342.72558594 C-474.90069131 329.68433114 -469.3337223 316.98145015 -463.84643555 304.26074219 C-463.45552734 303.34679687 -463.06461914 302.43285156 -462.66186523 301.49121094 C-456.85456798 287.95625465 -450.10360804 275.07189697 -442.84643555 262.26074219 C-442.35288574 261.38901367 -441.85933594 260.51728516 -441.35083008 259.61914062 C-436.08187799 250.34900692 -430.71056136 241.16970255 -424.84643555 232.26074219 C-423.98687439 230.92883106 -423.12751512 229.59678963 -422.26831055 228.26464844 C-421.35754139 226.86706366 -420.4460856 225.4699261 -419.53393555 224.07324219 C-419.10072998 223.4000293 -418.66752441 222.72681641 -418.22119141 222.03320312 C-417.14878895 220.40651811 -416.0035782 218.82827913 -414.84643555 217.26074219 C-414.18643555 217.26074219 -413.52643555 217.26074219 -412.84643555 217.26074219 C-412.59120117 216.54273438 -412.3359668 215.82472656 -412.07299805 215.08496094 C-408.69097959 207.29770187 -402.39408362 200.58329518 -397.0690918 194.03027344 C-395.34195327 191.87817991 -393.64706935 189.71131999 -391.9675293 187.52246094 C-391.47164307 186.87962158 -390.97575684 186.23678223 -390.46484375 185.57446289 C-389.48064296 184.29678781 -388.50118469 183.0154434 -387.52685547 181.73022461 C-386.34613348 180.20361529 -385.1013749 178.72695079 -383.84643555 177.26074219 C-383.18643555 177.26074219 -382.52643555 177.26074219 -381.84643555 177.26074219 C-381.63889648 176.73480469 -381.43135742 176.20886719 -381.2175293 175.66699219 C-379.26333007 172.23740038 -376.62263863 169.60674233 -373.90893555 166.76074219 C-372.83558048 165.62697073 -371.76391766 164.4915944 -370.6940918 163.35449219 C-370.19409668 162.82339844 -369.69410156 162.29230469 -369.17895508 161.74511719 C-367.7107449 160.16010671 -367.7107449 160.16010671 -366.0925293 157.85449219 C-365.68131836 157.32855469 -365.27010742 156.80261719 -364.84643555 156.26074219 C-364.18643555 156.26074219 -363.52643555 156.26074219 -362.84643555 156.26074219 C-362.84643555 155.60074219 -362.84643555 154.94074219 -362.84643555 154.26074219 C-362.18643555 154.26074219 -361.52643555 154.26074219 -360.84643555 154.26074219 C-360.84643555 153.60074219 -360.84643555 152.94074219 -360.84643555 152.26074219 C-360.18643555 152.26074219 -359.52643555 152.26074219 -358.84643555 152.26074219 C-358.84643555 151.60074219 -358.84643555 150.94074219 -358.84643555 150.26074219 C-358.18643555 150.26074219 -357.52643555 150.26074219 -356.84643555 150.26074219 C-356.84643555 149.60074219 -356.84643555 148.94074219 -356.84643555 148.26074219 C-356.18643555 148.26074219 -355.52643555 148.26074219 -354.84643555 148.26074219 C-354.84643555 147.60074219 -354.84643555 146.94074219 -354.84643555 146.26074219 C-354.18643555 146.26074219 -353.52643555 146.26074219 -352.84643555 146.26074219 C-352.84643555 145.60074219 -352.84643555 144.94074219 -352.84643555 144.26074219 C-352.18643555 144.26074219 -351.52643555 144.26074219 -350.84643555 144.26074219 C-350.84643555 143.60074219 -350.84643555 142.94074219 -350.84643555 142.26074219 C-349.4831543 140.88574219 -349.4831543 140.88574219 -347.53393555 139.26074219 C-342.94619927 135.37881149 -338.55629512 131.30435747 -334.16674805 127.20214844 C-331.84643555 125.26074219 -331.84643555 125.26074219 -329.84643555 125.26074219 C-329.84643555 124.60074219 -329.84643555 123.94074219 -329.84643555 123.26074219 C-325.37584731 119.26074219 -325.37584731 119.26074219 -322.84643555 119.26074219 C-322.84643555 118.60074219 -322.84643555 117.94074219 -322.84643555 117.26074219 C-321.3347168 115.88574219 -321.3347168 115.88574219 -319.15893555 114.26074219 C-316.26221754 112.08016999 -313.37306891 109.89748393 -310.5300293 107.64746094 C-309.96179443 107.20080078 -309.39355957 106.75414063 -308.80810547 106.29394531 C-307.68676172 105.41235257 -306.5683129 104.52706222 -305.453125 103.63769531 C-302.38192766 101.2436977 -299.54388476 99.50007239 -295.84643555 98.26074219 C-295.84643555 97.60074219 -295.84643555 96.94074219 -295.84643555 96.26074219 C-293.86547852 94.70776367 -293.86547852 94.70776367 -291.08862305 92.88183594 C-290.07695068 92.21200684 -289.06527832 91.54217773 -288.02294922 90.85205078 C-286.93344971 90.14129395 -285.8439502 89.43053711 -284.72143555 88.69824219 C-283.62226807 87.97459473 -282.52310059 87.25094727 -281.390625 86.50537109 C-278.2136268 84.41702084 -275.03051554 82.33827194 -271.84643555 80.26074219 C-270.40473195 79.31197512 -268.96327448 78.36283379 -267.5222168 77.41308594 C-261.65983163 73.57142324 -255.722949 69.98799206 -249.52612305 66.70996094 C-246.74353021 65.2050893 -244.05258111 63.58617239 -241.34643555 61.94824219 C-235.4333427 58.47085339 -229.31941281 55.55304409 -223.10473633 52.66552734 C-218.71571543 50.62582712 -214.37891037 48.52868359 -210.08789062 46.29052734 C-177.40863863 29.35459583 -139.78252458 17.91113625 -103.84643555 10.26074219 C-103.08524414 10.09864258 -102.32405273 9.93654297 -101.53979492 9.76953125 C-90.53704891 7.4694462 -79.4774193 5.69285062 -68.34643555 4.13574219 C-67.22140625 3.9771875 -66.09637695 3.81863281 -64.93725586 3.65527344 C-61.24396133 3.15541327 -57.54698163 2.70368668 -53.84643555 2.26074219 C-53.16241669 2.17107178 -52.47839783 2.08140137 -51.77365112 1.98901367 C-34.57060445 -0.23306965 -17.31193847 -0.04693431 0 0 Z M-59.84643555 82.26074219 C-60.9742041 82.43154297 -62.10197266 82.60234375 -63.26391602 82.77832031 C-69.82419759 83.78835612 -76.33792968 84.96088292 -82.84643555 86.26074219 C-83.59844238 86.40447266 -84.35044922 86.54820313 -85.12524414 86.69628906 C-99.34893003 89.4344038 -113.06790824 93.84778219 -126.84643555 98.26074219 C-127.60085938 98.49937988 -128.3552832 98.73801758 -129.13256836 98.98388672 C-145.13862166 104.05365942 -160.86182778 110.00423625 -175.96020508 117.35449219 C-178.00432564 118.33660137 -180.06183072 119.285412 -182.1237793 120.22949219 C-189.84286978 123.77630917 -197.27079544 127.47702909 -204.52612305 131.91308594 C-206.84643555 133.26074219 -206.84643555 133.26074219 -209.84643555 134.26074219 C-209.84643555 134.92074219 -209.84643555 135.58074219 -209.84643555 136.26074219 C-210.40717773 136.36773437 -210.96791992 136.47472656 -211.5456543 136.58496094 C-214.24420502 137.37757431 -216.27186765 138.58837318 -218.65893555 140.07324219 C-222.6827147 142.54712122 -226.73459305 144.9366573 -230.84643555 147.26074219 C-230.84643555 147.92074219 -230.84643555 148.58074219 -230.84643555 149.26074219 C-233.81643555 150.25074219 -233.81643555 150.25074219 -236.84643555 151.26074219 C-236.84643555 151.92074219 -236.84643555 152.58074219 -236.84643555 153.26074219 C-239.81643555 154.25074219 -239.81643555 154.25074219 -242.84643555 155.26074219 C-242.84643555 155.92074219 -242.84643555 156.58074219 -242.84643555 157.26074219 C-243.54768555 157.50824219 -244.24893555 157.75574219 -244.97143555 158.01074219 C-248.24158102 159.43254457 -250.98755754 161.13320507 -253.84643555 163.26074219 C-253.84643555 163.92074219 -253.84643555 164.58074219 -253.84643555 165.26074219 C-254.3981543 165.51855469 -254.94987305 165.77636719 -255.51831055 166.04199219 C-258.1895773 167.44037344 -260.61495463 169.04837524 -263.09643555 170.76074219 C-263.9884668 171.36917969 -264.88049805 171.97761719 -265.79956055 172.60449219 C-266.4750293 173.15105469 -267.15049805 173.69761719 -267.84643555 174.26074219 C-267.84643555 174.92074219 -267.84643555 175.58074219 -267.84643555 176.26074219 C-270.32143555 177.25074219 -270.32143555 177.25074219 -272.84643555 178.26074219 C-272.84643555 178.92074219 -272.84643555 179.58074219 -272.84643555 180.26074219 C-273.38397461 180.47988281 -273.92151367 180.69902344 -274.4753418 180.92480469 C-277.65942223 182.71880058 -280.15035463 185.13696378 -282.78393555 187.63574219 C-283.81243128 188.60343377 -284.84236264 189.56960198 -285.8737793 190.53417969 C-286.36861816 190.99791992 -286.86345703 191.46166016 -287.37329102 191.93945312 C-288.76660962 193.18914492 -290.2448209 194.34226139 -291.7253418 195.48730469 C-292.42530273 196.07253906 -293.12526367 196.65777344 -293.84643555 197.26074219 C-293.84643555 197.92074219 -293.84643555 198.58074219 -293.84643555 199.26074219 C-294.50643555 199.26074219 -295.16643555 199.26074219 -295.84643555 199.26074219 C-295.84643555 199.92074219 -295.84643555 200.58074219 -295.84643555 201.26074219 C-296.65081055 201.57011719 -296.65081055 201.57011719 -297.47143555 201.88574219 C-300.76621563 203.79324645 -303.44007183 206.30893603 -305.84643555 209.26074219 C-305.84643555 209.92074219 -305.84643555 210.58074219 -305.84643555 211.26074219 C-306.50643555 211.26074219 -307.16643555 211.26074219 -307.84643555 211.26074219 C-307.84643555 211.92074219 -307.84643555 212.58074219 -307.84643555 213.26074219 C-308.50643555 213.26074219 -309.16643555 213.26074219 -309.84643555 213.26074219 C-311.31514282 214.67394138 -311.31514282 214.67394138 -312.84643555 216.57324219 C-316.72836625 221.16097847 -320.80282026 225.55088261 -324.9050293 229.94042969 C-327.06033792 232.01216255 -327.06033792 232.01216255 -326.84643555 234.26074219 C-327.50643555 234.26074219 -328.16643555 234.26074219 -328.84643555 234.26074219 C-330.18263176 235.9184514 -331.44105694 237.63926235 -332.65893555 239.38574219 C-334.95619407 242.63705342 -337.23238113 245.81970115 -339.84643555 248.82324219 C-342.05787442 250.99293338 -342.05787442 250.99293338 -341.84643555 253.26074219 C-342.50643555 253.26074219 -343.16643555 253.26074219 -343.84643555 253.26074219 C-345.44199557 255.40973448 -346.90869114 257.5559807 -348.35424805 259.80371094 C-348.79856171 260.48315262 -349.24287537 261.1625943 -349.70065308 261.86262512 C-351.13080778 264.05363513 -352.55098916 266.25092903 -353.97143555 268.44824219 C-354.9057294 269.88027574 -355.84061871 271.31192099 -356.77612305 272.74316406 C-359.4883608 276.90163063 -362.17305596 281.07721216 -364.84643555 285.26074219 C-365.26082886 285.90658264 -365.67522217 286.5524231 -366.10217285 287.21783447 C-367.25149653 289.01498094 -368.39069017 290.81807746 -369.52612305 292.62402344 C-370.17049316 293.64407471 -370.81486328 294.66412598 -371.47875977 295.71508789 C-373.08307476 298.21956678 -373.08307476 298.21956678 -372.84643555 301.26074219 C-373.50643555 301.26074219 -374.16643555 301.26074219 -374.84643555 301.26074219 C-380.05957428 311.56223707 -385.11794667 321.92289095 -389.97973633 332.39501953 C-390.73220027 334.01483064 -391.49001346 335.63215474 -392.2487793 337.24902344 C-410.81967295 377.29807525 -421.5493284 420.55960826 -426.84643555 464.26074219 C-426.9650293 465.17984375 -427.08362305 466.09894531 -427.20581055 467.04589844 C-430.99283408 497.29700312 -430.79157794 530.03906782 -426.84643555 560.26074219 C-426.70689453 561.36675781 -426.56735352 562.47277344 -426.42358398 563.61230469 C-424.49921256 578.61504748 -422.14127678 593.49621868 -418.84643555 608.26074219 C-418.57444336 609.50210938 -418.30245117 610.74347656 -418.0222168 612.02246094 C-413.4410226 631.52881268 -407.20596652 650.89040248 -399.59008789 669.41601562 C-398.46207997 672.21418629 -397.44625498 675.05292964 -396.40893555 677.88574219 C-393.71264955 684.90842173 -390.3250086 691.53465409 -386.89038086 698.21679688 C-385.55308191 700.83510061 -384.24934946 703.46933642 -382.94692993 706.1051178 C-381.26388789 709.49898621 -379.55552189 712.87993131 -377.84643555 716.26074219 C-377.35486465 717.23672363 -377.35486465 717.23672363 -376.85336304 718.23242188 C-371.2027005 729.38540983 -364.80048652 739.79682845 -357.78393555 750.13574219 C-356.83205461 751.55453756 -355.88088137 752.97380799 -354.93041992 754.39355469 C-347.30289555 766.13943992 -347.30289555 766.13943992 -338.84643555 777.26074219 C-338.18643555 777.26074219 -337.52643555 777.26074219 -336.84643555 777.26074219 C-336.47518555 778.07285156 -336.47518555 778.07285156 -336.09643555 778.90136719 C-334.56654951 781.78902708 -332.75492557 784.35850237 -330.84643555 787.01074219 C-330.14518555 787.99558594 -329.44393555 788.98042969 -328.72143555 789.99511719 C-328.10268555 790.74277344 -327.48393555 791.49042969 -326.84643555 792.26074219 C-326.18643555 792.26074219 -325.52643555 792.26074219 -324.84643555 792.26074219 C-324.63631836 792.78925781 -324.42620117 793.31777344 -324.2097168 793.86230469 C-322.28805898 797.24310096 -319.70635162 799.83083632 -317.03393555 802.63574219 C-315.98430651 803.74635091 -314.93611719 804.85832216 -313.8894043 805.97167969 C-313.37941895 806.51276367 -312.86943359 807.05384766 -312.34399414 807.61132812 C-310.85497289 809.25133914 -309.46827303 810.94548633 -308.0847168 812.67480469 C-307.34608398 813.52816406 -306.60745117 814.38152344 -305.84643555 815.26074219 C-305.18643555 815.26074219 -304.52643555 815.26074219 -303.84643555 815.26074219 C-303.84643555 815.92074219 -303.84643555 816.58074219 -303.84643555 817.26074219 C-303.18643555 817.26074219 -302.52643555 817.26074219 -301.84643555 817.26074219 C-301.84643555 817.92074219 -301.84643555 818.58074219 -301.84643555 819.26074219 C-301.18643555 819.26074219 -300.52643555 819.26074219 -299.84643555 819.26074219 C-299.84643555 819.92074219 -299.84643555 820.58074219 -299.84643555 821.26074219 C-299.18643555 821.26074219 -298.52643555 821.26074219 -297.84643555 821.26074219 C-297.84643555 821.92074219 -297.84643555 822.58074219 -297.84643555 823.26074219 C-296.50047984 824.66136946 -296.50047984 824.66136946 -294.65893555 826.13574219 C-291.87249776 828.49195798 -289.14973178 830.89120346 -286.4909668 833.38964844 C-285.91048584 833.93443848 -285.33000488 834.47922852 -284.73193359 835.04052734 C-283.56473892 836.13957766 -282.40079188 837.2420879 -281.24023438 838.34814453 C-278.50506053 841.2919282 -278.50506053 841.2919282 -274.84643555 842.26074219 C-274.84643555 842.92074219 -274.84643555 843.58074219 -274.84643555 844.26074219 C-272.75671285 846.05613774 -270.66801472 847.7313566 -268.47143555 849.38574219 C-267.8681543 849.85367188 -267.26487305 850.32160156 -266.64331055 850.80371094 C-263.58908614 853.39688457 -263.58908614 853.39688457 -259.84643555 854.26074219 C-259.84643555 854.92074219 -259.84643555 855.58074219 -259.84643555 856.26074219 C-258.4173385 857.5944929 -258.4173385 857.5944929 -256.5065918 858.91308594 C-255.78141357 859.43700928 -255.05623535 859.96093262 -254.30908203 860.50073242 C-253.51703369 861.06091064 -252.72498535 861.62108887 -251.90893555 862.19824219 C-250.69669312 863.06461304 -250.69669312 863.06461304 -249.45996094 863.94848633 C-241.98941008 869.24517876 -234.33089187 874.22319052 -226.6027832 879.1328125 C-224.36322819 880.57105884 -222.16654292 882.0682485 -219.97143555 883.57324219 C-215.11896663 886.82365553 -209.9994894 889.52214874 -204.84643555 892.26074219 C-203.77006836 892.85628906 -202.69370117 893.45183594 -201.5847168 894.06542969 C-191.49185888 899.62145596 -181.0676427 904.36387917 -170.54785156 909.05029297 C-167.72716464 910.31418504 -164.91769548 911.60119338 -162.1081543 912.88964844 C-139.08761744 923.35519181 -113.72359813 931.23551152 -89.03393555 936.57324219 C-88.26629883 936.75435547 -87.49866211 936.93546875 -86.70776367 937.12207031 C-68.48204178 941.06816174 -50.35615372 929.90096776 -35.43237305 920.52636719 C-34.04597675 919.63084958 -32.66301527 918.72998669 -31.28393555 917.82324219 C-30.30952515 917.1857605 -30.30952515 917.1857605 -29.31542969 916.53540039 C-27.78596554 915.50035075 -26.30968152 914.38746289 -24.84643555 913.26074219 C-24.84643555 912.60074219 -24.84643555 911.94074219 -24.84643555 911.26074219 C-23.19643555 910.60074219 -21.54643555 909.94074219 -19.84643555 909.26074219 C-19.84643555 908.60074219 -19.84643555 907.94074219 -19.84643555 907.26074219 C-19.27151367 907.009375 -18.6965918 906.75800781 -18.10424805 906.49902344 C-6.55510525 900.164978 3.08453954 884.53930582 9.15356445 873.26074219 C9.46946533 872.68437012 9.78536621 872.10799805 10.11083984 871.51416016 C12.76221851 866.49056091 14.4190569 861.49758807 15.84106445 856.01074219 C16.05311523 855.22183594 16.26516602 854.43292969 16.48364258 853.62011719 C17.0505304 851.50278223 17.60767003 849.38357766 18.15356445 847.26074219 C18.33298584 846.59115479 18.51240723 845.92156738 18.69726562 845.23168945 C25.18098042 817.22578813 15.08571655 787.7476574 2.15356445 763.26074219 C1.82356445 763.26074219 1.49356445 763.26074219 1.15356445 763.26074219 C1.08886963 763.93427734 1.0241748 764.6078125 0.95751953 765.30175781 C-1.49531019 790.01112228 -6.42603589 812.57595868 -23.84643555 831.26074219 C-24.28922852 831.73914551 -24.73202148 832.21754883 -25.18823242 832.71044922 C-30.60142275 838.50894026 -35.98261645 843.24605555 -42.84643555 847.26074219 C-42.84643555 847.92074219 -42.84643555 848.58074219 -42.84643555 849.26074219 C-43.67143555 849.48761719 -44.49643555 849.71449219 -45.34643555 849.94824219 C-48.12402602 850.98983861 -49.84211093 851.84087622 -52.22143555 853.44824219 C-58.64940775 857.59532103 -65.78030148 860.39674922 -72.84643555 863.26074219 C-73.49725098 863.52532227 -74.14806641 863.78990234 -74.81860352 864.0625 C-99.67063698 873.95804786 -127.16399965 878.65674244 -153.84643555 878.26074219 C-151.09684014 876.80164508 -148.34668834 875.34359976 -145.59643555 873.88574219 C-144.43047852 873.26699219 -144.43047852 873.26699219 -143.2409668 872.63574219 C-142.48686523 872.23613281 -141.73276367 871.83652344 -140.95581055 871.42480469 C-140.26455078 871.05822754 -139.57329102 870.69165039 -138.86108398 870.31396484 C-136.86774401 869.27188188 -134.86138018 868.26031276 -132.84643555 867.26074219 C-132.84643555 866.60074219 -132.84643555 865.94074219 -132.84643555 865.26074219 C-132.28182617 865.15246094 -131.7172168 865.04417969 -131.13549805 864.93261719 C-122.88848697 862.51199277 -115.09343203 855.38919017 -108.15893555 850.44824219 C-107.34408691 849.87299805 -106.52923828 849.29775391 -105.68969727 848.70507812 C-104.93317871 848.16012695 -104.17666016 847.61517578 -103.3972168 847.05371094 C-102.71312744 846.56410889 -102.02903809 846.07450684 -101.32421875 845.57006836 C-100.83655029 845.13799072 -100.34888184 844.70591309 -99.84643555 844.26074219 C-99.84643555 843.60074219 -99.84643555 842.94074219 -99.84643555 842.26074219 C-99.24831055 841.97199219 -98.65018555 841.68324219 -98.03393555 841.38574219 C-95.65315763 840.21332193 -95.65315763 840.21332193 -92.84643555 838.26074219 C-92.84643555 837.60074219 -92.84643555 836.94074219 -92.84643555 836.26074219 C-92.30374023 836.050625 -91.76104492 835.84050781 -91.2019043 835.62402344 C-87.96814033 833.75240881 -85.65048294 831.18340223 -83.15893555 828.44824219 C-82.63291748 827.87364258 -82.10689941 827.29904297 -81.56494141 826.70703125 C-63.10616674 806.12820008 -53.39164983 782.39210925 -54.68237305 754.67382812 C-55.75929466 738.83410609 -61.34986255 724.97928704 -69.47143555 711.51074219 C-69.9387207 710.73553223 -70.40600586 709.96032227 -70.88745117 709.16162109 C-73.15960634 705.52471839 -75.0657523 702.4972027 -78.84643555 700.26074219 C-78.77424805 700.85757813 -78.70206055 701.45441406 -78.62768555 702.06933594 C-76.67729692 720.30005182 -76.25146282 742.3682831 -86.84643555 758.26074219 C-86.84643555 759.25074219 -86.84643555 760.24074219 -86.84643555 761.26074219 C-87.50643555 761.26074219 -88.16643555 761.26074219 -88.84643555 761.26074219 C-89.2312207 762.04384766 -89.2312207 762.04384766 -89.6237793 762.84277344 C-101.42433109 785.53002958 -124.82296029 803.79552616 -147.84643555 814.26074219 C-149.1733439 814.61879682 -150.50569823 814.95856288 -151.84643555 815.26074219 C-151.84643555 814.60074219 -151.84643555 813.94074219 -151.84643555 813.26074219 C-151.18643555 813.26074219 -150.52643555 813.26074219 -149.84643555 813.26074219 C-149.84643555 812.60074219 -149.84643555 811.94074219 -149.84643555 811.26074219 C-149.18643555 811.26074219 -148.52643555 811.26074219 -147.84643555 811.26074219 C-139.04167802 800.97840467 -132.52284379 789.24947385 -128.84643555 776.26074219 C-128.47518555 775.02324219 -128.10393555 773.78574219 -127.72143555 772.51074219 C-119.97474613 738.68814284 -127.00949475 702.77662854 -135.23071289 669.75634766 C-136.24095893 665.66168666 -137.19899755 661.55493347 -138.15893555 657.44824219 C-138.4882496 656.04587189 -138.81766436 654.64352523 -139.1472168 653.24121094 C-139.37795898 652.25765625 -139.60870117 651.27410156 -139.84643555 650.26074219 C-142.35050179 651.2516561 -144.84096587 652.25836708 -147.3112793 653.33105469 C-148.12725586 653.67910156 -148.94323242 654.02714844 -149.78393555 654.38574219 C-150.59733398 654.73894531 -151.41073242 655.09214844 -152.2487793 655.45605469 C-155.22436499 656.37781507 -157.74902368 656.39600035 -160.84643555 656.26074219 C-160.59474609 655.77420166 -160.34305664 655.28766113 -160.08374023 654.78637695 C-151.70581426 638.39720326 -144.29209868 621.58407534 -149.84643555 603.13574219 C-150.49925528 601.1727495 -151.16113255 599.21263196 -151.84643555 597.26074219 C-152.41491211 597.586875 -152.98338867 597.91300781 -153.5690918 598.24902344 C-164.34368337 604.34683069 -173.87793891 607.65724485 -186.28393555 607.51074219 C-187.11723389 607.50397461 -187.95053223 607.49720703 -188.80908203 607.49023438 C-198.96483579 607.31953276 -211.38606938 606.05337389 -218.97143555 598.51074219 C-219.59018555 597.76824219 -220.20893555 597.02574219 -220.84643555 596.26074219 C-218.17024838 593.39514451 -215.65979019 591.43801759 -212.22143555 589.57324219 C-206.39143466 586.16598763 -201.69734113 581.92567056 -196.84643555 577.26074219 C-196.06010742 576.52597656 -195.2737793 575.79121094 -194.46362305 575.03417969 C-185.63428625 566.56400235 -175.76626575 554.69499131 -173.84643555 542.26074219 C-174.9737207 542.49857422 -174.9737207 542.49857422 -176.1237793 542.74121094 C-191.2726423 544.85537545 -208.35014299 545.21928542 -221.47143555 536.44824219 C-225.04098862 533.50373744 -226.44852113 530.62922473 -227.84643555 526.26074219 C-226.96858398 525.99648438 -226.09073242 525.73222656 -225.1862793 525.45996094 C-212.77009937 521.00175364 -203.56877924 511.95279312 -197.84643555 500.26074219 C-193.20246416 489.72194643 -193.41802939 479.53020415 -193.84643555 468.26074219 C-194.7900293 468.18597656 -195.73362305 468.11121094 -196.70581055 468.03417969 C-207.33365466 466.94578601 -217.23916967 464.84059551 -224.59643555 456.38574219 C-225.33893555 455.35449219 -226.08143555 454.32324219 -226.84643555 453.26074219 C-225.87706055 453.19886719 -224.90768555 453.13699219 -223.90893555 453.07324219 C-211.04017615 451.06972276 -199.40026594 438.18863356 -191.84643555 428.26074219 C-191.84643555 427.60074219 -191.84643555 426.94074219 -191.84643555 426.26074219 C-191.18643555 426.26074219 -190.52643555 426.26074219 -189.84643555 426.26074219 C-189.84643555 425.60074219 -189.84643555 424.94074219 -189.84643555 424.26074219 C-189.18643555 424.26074219 -188.52643555 424.26074219 -187.84643555 424.26074219 C-180.10919833 417.34987227 -177.80004322 407.36379806 -174.90893555 397.82324219 C-174.41255474 396.24263988 -173.91451963 394.6625561 -173.41479492 393.08300781 C-170.94296708 386.28259065 -170.94296708 386.28259065 -169.84643555 379.26074219 C-177.55092342 371.10431508 -188.55825356 362.34784479 -200.03393555 361.82324219 C-210.15133606 362.12815015 -219.06626489 366.58567196 -227.84643555 371.26074219 C-221.95255724 355.70071876 -215.90944389 341.93894975 -204.84643555 329.26074219 C-204.3050293 328.63554687 -203.76362305 328.01035156 -203.20581055 327.36621094 C-190.50319576 313.70781688 -172.05730273 307.00231649 -153.71362305 305.97558594 C-139.6488491 305.52177861 -126.24467416 308.22322158 -112.8972168 312.49121094 C-107.95764151 313.73717295 -104.96499401 313.88216356 -100.47143555 311.38574219 C-99.60518555 310.68449219 -98.73893555 309.98324219 -97.84643555 309.26074219 C-97.84643555 308.60074219 -97.84643555 307.94074219 -97.84643555 307.26074219 C-97.25378906 307.13256104 -96.66114258 307.00437988 -96.05053711 306.87231445 C-93.33790781 306.11964095 -91.10060419 304.77415828 -88.67114258 303.37866211 C-63.0978243 288.82853339 -34.65530357 284.95159524 -5.84643555 282.26074219 C-19.19642509 272.10242224 -35.6953978 268.33351316 -52.09643555 267.26074219 C-52.75016144 267.21650116 -53.40388733 267.17226013 -54.0774231 267.12667847 C-61.85608765 266.60337814 -69.6262364 266.19996152 -77.4206543 266.01464844 C-78.12318329 265.99719574 -78.82571228 265.97974304 -79.54953003 265.96176147 C-82.92317867 265.88082669 -86.29516386 265.81733203 -89.66967773 265.77832031 C-110.07490669 265.36566595 -131.36931264 259.73516779 -147.84643555 247.26074219 C-148.50643555 247.26074219 -149.16643555 247.26074219 -149.84643555 247.26074219 C-149.84643555 246.60074219 -149.84643555 245.94074219 -149.84643555 245.26074219 C-151.37113969 243.98837252 -151.37113969 243.98837252 -153.34643555 242.69824219 C-167.11106778 232.63011896 -172.41629752 219.34203633 -175.84643555 203.26074219 C-175.18643555 203.26074219 -174.52643555 203.26074219 -173.84643555 203.26074219 C-173.64018555 204.08574219 -173.43393555 204.91074219 -173.22143555 205.76074219 C-171.49622767 210.15218041 -169.07174493 213.80755768 -165.84643555 217.26074219 C-165.18643555 217.26074219 -164.52643555 217.26074219 -163.84643555 217.26074219 C-163.84643555 217.92074219 -163.84643555 218.58074219 -163.84643555 219.26074219 C-163.18643555 219.26074219 -162.52643555 219.26074219 -161.84643555 219.26074219 C-161.84643555 219.92074219 -161.84643555 220.58074219 -161.84643555 221.26074219 C-161.18643555 221.26074219 -160.52643555 221.26074219 -159.84643555 221.26074219 C-159.84643555 221.92074219 -159.84643555 222.58074219 -159.84643555 223.26074219 C-145.08411239 235.9028885 -128.501799 238.96583637 -109.84643555 241.26074219 C-108.64127289 241.43076752 -107.43611023 241.60079285 -106.19442749 241.77597046 C-102.00327301 242.29739802 -97.85241511 242.38223211 -93.63305664 242.3425293 C-92.46534729 242.33792946 -92.46534729 242.33792946 -91.27404785 242.33323669 C-89.59683555 242.32612855 -87.91963156 242.31676378 -86.24244308 242.30534172 C-83.57475987 242.28778911 -80.90713793 242.2775999 -78.2394104 242.26942444 C-70.65865285 242.24512296 -63.07797765 242.20966721 -55.49731445 242.16479492 C-50.84559294 242.13777427 -46.19391903 242.12088674 -41.54213333 242.10992622 C-39.78413768 242.10378154 -38.02615047 242.09386041 -36.26819992 242.07984734 C-7.00830965 241.84877404 21.32608544 248.3242697 45.1574707 265.94042969 C47.0327084 267.44463661 47.0327084 267.44463661 49.15356445 267.26074219 C49.15356445 267.92074219 49.15356445 268.58074219 49.15356445 269.26074219 C49.81356445 269.26074219 50.47356445 269.26074219 51.15356445 269.26074219 C51.15356445 269.92074219 51.15356445 270.58074219 51.15356445 271.26074219 C52.14356445 271.59074219 53.13356445 271.92074219 54.15356445 272.26074219 C47.72477219 258.31660123 28.63792607 249.5601709 15.11108398 244.49609375 C-6.49093414 236.63993162 -29.30135696 232.52156313 -51.90893555 228.69824219 C-76.58235355 224.43500395 -102.74444101 217.17261467 -123.24487305 202.29199219 C-124.80921892 201.08028242 -124.80921892 201.08028242 -126.84643555 201.26074219 C-126.84643555 200.60074219 -126.84643555 199.94074219 -126.84643555 199.26074219 C-128.43380954 197.6942536 -128.43380954 197.6942536 -130.47143555 196.07324219 C-138.56792377 189.11710442 -146.07138989 180.2925598 -147.72143555 169.32324219 C-147.79705208 167.9705465 -147.83427439 166.61549515 -147.84643555 165.26074219 C-147.88381836 164.28492188 -147.92120117 163.30910156 -147.9597168 162.30371094 C-148.12998206 154.74931023 -147.33958461 147.65982905 -145.84643555 140.26074219 C-145.18643555 140.26074219 -144.52643555 140.26074219 -143.84643555 140.26074219 C-143.90831055 141.33324219 -143.97018555 142.40574219 -144.03393555 143.51074219 C-144.04729842 151.00731234 -141.73105907 158.40035495 -138.84643555 165.26074219 C-138.18643555 165.26074219 -137.52643555 165.26074219 -136.84643555 165.26074219 C-136.68143555 165.94136719 -136.51643555 166.62199219 -136.34643555 167.32324219 C-131.43915958 176.9333243 -119.85387001 181.62090496 -110.15893555 185.01074219 C-89.03321376 191.35819452 -66.85809534 190.50872491 -45.03344727 190.33978271 C7.61022021 189.94163486 7.61022021 189.94163486 21.96606445 193.01074219 C23.25577148 193.27189819 23.25577148 193.27189819 24.5715332 193.53833008 C32.62208939 195.23369479 40.39738068 197.53402378 48.15356445 200.26074219 C49.30469727 200.66292969 50.45583008 201.06511719 51.6418457 201.47949219 C58.10408175 203.84872562 64.05773292 206.66477569 70.0090332 210.12402344 C72.04355412 211.41685263 72.04355412 211.41685263 74.15356445 211.26074219 C74.15356445 211.92074219 74.15356445 212.58074219 74.15356445 213.26074219 C75.71031435 214.41631592 75.71031435 214.41631592 77.71606445 215.51074219 C81.42334971 217.71667569 84.54360175 220.20224174 87.70825195 223.12402344 C89.10911137 224.46680778 89.10911137 224.46680778 91.15356445 224.26074219 C91.15356445 224.92074219 91.15356445 225.58074219 91.15356445 226.26074219 C91.81356445 226.26074219 92.47356445 226.26074219 93.15356445 226.26074219 C93.15356445 226.92074219 93.15356445 227.58074219 93.15356445 228.26074219 C93.81356445 228.26074219 94.47356445 228.26074219 95.15356445 228.26074219 C95.40879883 228.83179688 95.6640332 229.40285156 95.92700195 229.99121094 C97.28812209 232.50971666 98.90374472 234.4108505 100.77856445 236.57324219 C110.0781021 248.08776063 115.89196339 261.31701159 117.80981445 276.03417969 C117.97743286 277.25657349 117.97743286 277.25657349 118.1484375 278.50366211 C118.35605802 280.10159009 118.53334755 281.70382904 118.67626953 283.30883789 C118.92231887 285.8176144 118.92231887 285.8176144 120.15356445 289.26074219 C123.3435105 291.29925382 123.3435105 291.29925382 127.15356445 292.26074219 C128.17836914 292.62554687 129.20317383 292.99035156 130.2590332 293.36621094 C131.27610352 293.72328125 132.29317383 294.08035156 133.34106445 294.44824219 C139.36028205 296.72803823 144.35889117 299.77551271 149.5949707 303.49121094 C151.73990617 304.97465486 153.79005028 306.17630627 156.15356445 307.26074219 C156.15356445 307.92074219 156.15356445 308.58074219 156.15356445 309.26074219 C156.81356445 309.26074219 157.47356445 309.26074219 158.15356445 309.26074219 C158.15356445 309.92074219 158.15356445 310.58074219 158.15356445 311.26074219 C158.81356445 311.26074219 159.47356445 311.26074219 160.15356445 311.26074219 C160.15356445 311.92074219 160.15356445 312.58074219 160.15356445 313.26074219 C160.81356445 313.26074219 161.47356445 313.26074219 162.15356445 313.26074219 C162.42555664 313.99421875 162.69754883 314.72769531 162.9777832 315.48339844 C164.0982896 318.13017601 165.39208046 320.30196577 166.96606445 322.69824219 C170.08376935 327.7814567 171.90296034 332.97519305 173.8059082 338.60449219 C176.07397093 344.75784498 179.13113082 350.44675527 182.15356445 356.26074219 C182.98903657 357.98887648 183.82258381 359.71794367 184.65356445 361.44824219 C191.472427 374.9539893 200.99137991 387.0485308 212.15356445 397.26074219 C212.81356445 397.26074219 213.47356445 397.26074219 214.15356445 397.26074219 C214.15356445 397.92074219 214.15356445 398.58074219 214.15356445 399.26074219 C216.09970973 400.8542308 216.09970973 400.8542308 218.52856445 402.38574219 C219.74672852 403.19398438 219.74672852 403.19398438 220.98950195 404.01855469 C223.02678471 405.42668349 223.02678471 405.42668349 225.15356445 405.26074219 C225.15356445 405.92074219 225.15356445 406.58074219 225.15356445 407.26074219 C229.17766978 409.29994399 233.21165059 411.31737791 237.25610352 413.31591797 C238.92437638 414.14661998 240.58278828 414.99706383 242.23950195 415.85058594 C249.82346995 419.60275908 257.42560894 421.92676981 265.64404297 423.90551758 C273.36726528 425.89543873 278.62902017 429.58739929 284.15356445 435.26074219 C285.14356445 434.93074219 286.13356445 434.60074219 287.15356445 434.26074219 C287.15356445 433.60074219 287.15356445 432.94074219 287.15356445 432.26074219 C287.81356445 432.26074219 288.47356445 432.26074219 289.15356445 432.26074219 C289.15356445 431.60074219 289.15356445 430.94074219 289.15356445 430.26074219 C289.66918945 430.01324219 290.18481445 429.76574219 290.71606445 429.51074219 C292.7738328 428.45547637 294.77383668 427.34918193 296.77856445 426.19824219 C301.50913765 423.48254276 303.8996302 423.07549436 309.40356445 423.01074219 C310.7080957 422.98496094 312.01262695 422.95917969 313.35668945 422.93261719 C317.35271945 423.27795311 319.69404609 424.31604252 323.15356445 426.26074219 C323.81356445 426.26074219 324.47356445 426.26074219 325.15356445 426.26074219 C325.15356445 426.92074219 325.15356445 427.58074219 325.15356445 428.26074219 C326.98689779 430.42740885 326.98689779 430.42740885 329.15356445 432.26074219 C329.81356445 432.26074219 330.47356445 432.26074219 331.15356445 432.26074219 C331.40106445 432.92074219 331.64856445 433.58074219 331.90356445 434.26074219 C332.90518728 436.66463697 333.97681926 438.94237852 335.15356445 441.26074219 C342.56032472 456.01919388 341.00748855 471.1004438 336.12231445 486.51464844 C329.55033587 504.96503426 317.93680418 520.20653879 301.15356445 530.26074219 C297.7277832 531.53808594 297.7277832 531.53808594 295.15356445 532.26074219 C295.31856445 531.74511719 295.48356445 531.22949219 295.65356445 530.69824219 C297.2965218 522.6888251 295.37403517 515.91377466 291.21606445 509.07324219 C285.2402549 502.6501415 275.72982986 499.41365867 267.2355957 498.31152344 C256.76703327 498.13903762 247.27532159 501.97664667 239.15356445 508.32324219 C234.21038622 512.16685518 229.53158121 514.26074219 223.15356445 514.26074219 C223.31083008 513.76574219 223.4680957 513.27074219 223.63012695 512.76074219 C225.95067768 501.67751484 224.54968045 491.15111635 219.15356445 481.26074219 C218.80422852 480.53628906 218.45489258 479.81183594 218.0949707 479.06542969 C213.1950131 469.91166274 203.75289143 463.65013418 194.15356445 460.26074219 C193.33952148 461.38222656 193.33952148 461.38222656 192.5090332 462.52636719 C191.43588867 464.00363281 191.43588867 464.00363281 190.34106445 465.51074219 C189.63336914 466.48527344 188.92567383 467.45980469 188.1965332 468.46386719 C186.95630888 470.16176511 185.69369283 471.843994 184.3918457 473.49511719 C182.96216728 475.17422171 182.96216728 475.17422171 183.15356445 477.26074219 C182.49356445 477.26074219 181.83356445 477.26074219 181.15356445 477.26074219 C179.97269982 478.72575854 179.97269982 478.72575854 178.84106445 480.57324219 C176.67299391 483.76082209 174.67635324 485.54967335 171.15356445 487.26074219 C171.48356445 486.27074219 171.81356445 485.28074219 172.15356445 484.26074219 C175.23355101 473.13733749 171.27476059 461.76056235 167.41137695 451.28417969 C164.55172531 446.68387052 159.02777385 445.322285 154.15356445 443.57324219 C152.95731445 443.13625 151.76106445 442.69925781 150.52856445 442.24902344 C147.49902952 441.36190268 145.2739923 441.04207584 142.15356445 441.26074219 C141.79004883 442.26492188 141.4265332 443.26910156 141.05200195 444.30371094 C133.88414993 463.89680226 133.88414993 463.89680226 130.15356445 470.26074219 C129.16356445 470.59074219 128.17356445 470.92074219 127.15356445 471.26074219 C127.42168945 470.35324219 127.68981445 469.44574219 127.96606445 468.51074219 C129.29553128 458.77435278 120.70260338 446.8554533 115.15356445 439.26074219 C114.49356445 439.26074219 113.83356445 439.26074219 113.15356445 439.26074219 C112.90606445 438.64199219 112.65856445 438.02324219 112.40356445 437.38574219 C110.84191066 434.73093074 110.05985262 434.2718295 107.15356445 433.26074219 C93.82518972 433.24634869 81.60477191 436.79924355 71.65356445 446.07324219 C66.08319226 452.2412938 61.92439659 459.11491434 60.15356445 467.26074219 C73.89850103 468.27888564 87.32814223 459.1519511 97.48950195 450.49511719 C99.89889598 448.4743351 101.09540392 447.61360686 104.15356445 447.26074219 C106.33930845 459.5555522 104.88677911 469.13004166 99.15356445 480.26074219 C112.85541927 485.59459054 112.85541927 485.59459054 126.91333008 483.47949219 C132.01496937 481.00627353 136.84723226 478.1352495 141.65356445 475.13574219 C142.3805957 474.69359375 143.10762695 474.25144531 143.85668945 473.79589844 C145.65904938 472.67450532 147.41177227 471.47407801 149.15356445 470.26074219 C149.15356445 469.60074219 149.15356445 468.94074219 149.15356445 468.26074219 C151.13356445 467.60074219 153.11356445 466.94074219 155.15356445 466.26074219 C158.58312167 475.42451907 158.19863784 484.29471085 154.3215332 493.23730469 C153.14436071 495.27668713 151.81364752 496.61492917 150.15356445 498.26074219 C150.15356445 498.92074219 150.15356445 499.58074219 150.15356445 500.26074219 C151.94499653 501.24033799 153.7367175 502.21940548 155.52856445 503.19824219 C156.52629883 503.74351562 157.5240332 504.28878906 158.55200195 504.85058594 C160.07426792 505.67571809 161.60485228 506.4863861 163.15356445 507.26074219 C165.85368226 506.20062882 168.41886396 505.07627019 171.02856445 503.82324219 C171.78927246 503.46286865 172.54998047 503.10249512 173.33374023 502.73120117 C179.20210312 499.88101229 184.51407267 496.61280389 189.83325195 492.82714844 C192.15356445 491.26074219 192.15356445 491.26074219 195.15356445 490.26074219 C196.17971379 511.95196052 196.17971379 511.95196052 190.15356445 520.26074219 C189.49356445 521.25074219 188.83356445 522.24074219 188.15356445 523.26074219 C189.21575195 523.79183594 190.27793945 524.32292969 191.37231445 524.87011719 C195.62231445 526.99511719 195.62231445 526.99511719 199.87231445 529.12011719 C200.5804126 529.47299805 201.28851074 529.82587891 202.01806641 530.18945312 C203.43187273 530.89869997 204.84196083 531.61541196 206.24804688 532.33984375 C215.91413594 537.29017556 225.20552042 539.62140328 236.02856445 539.76074219 C236.81271729 539.77911133 237.59687012 539.79748047 238.40478516 539.81640625 C244.27324442 539.75420742 248.07294992 538.17717695 253.15356445 535.26074219 C253.15356445 534.60074219 253.15356445 533.94074219 253.15356445 533.26074219 C253.81356445 533.26074219 254.47356445 533.26074219 255.15356445 533.26074219 C259.47447717 527.49551325 262.25120187 521.16932208 264.15356445 514.26074219 C275.56565428 529.42204884 281.02686121 545.63523347 278.87231445 564.75683594 C277.1131406 574.51686779 272.02611404 581.42150011 264.15356445 587.26074219 C263.16356445 587.75574219 263.16356445 587.75574219 262.15356445 588.26074219 C261.75340362 590.39196912 261.45960449 592.54349274 261.21606445 594.69824219 C260.14743715 602.89661725 258.74031546 610.27140732 254.15356445 617.26074219 C254.15356445 617.92074219 254.15356445 618.58074219 254.15356445 619.26074219 C253.49356445 619.26074219 252.83356445 619.26074219 252.15356445 619.26074219 C251.0849545 620.42703671 250.07326466 621.6458015 249.09106445 622.88574219 C241.36044861 631.90745057 230.88007364 636.75734357 219.15356445 638.26074219 C197.52936529 639.64855172 180.41772763 633.42536348 161.74560547 623.25561523 C157.27639473 620.82801987 152.75476178 618.55290211 148.15356445 616.38574219 C146.39012695 615.55429688 146.39012695 615.55429688 144.59106445 614.70605469 C137.30404971 611.64219622 131.33879838 610.21486758 123.85668945 613.16699219 C118.1423718 616.00497545 114.26587315 619.66970192 111.15356445 625.26074219 C110.4887841 627.41004217 110.4887841 627.41004217 110.15356445 629.26074219 C109.16356445 629.26074219 108.17356445 629.26074219 107.15356445 629.26074219 C110.66960931 608.80375392 110.66960931 608.80375392 117.77856445 603.01074219 C131.57623102 593.71946947 147.3204988 594.21856804 163.15356445 597.26074219 C166.59129614 598.00399276 170.02166752 598.77683932 173.45239258 599.55175781 C195.00880135 604.9801891 195.00880135 604.9801891 216.15356445 600.26074219 C218.70263071 598.38641714 218.70263071 598.38641714 220.15356445 596.26074219 C220.15356445 595.60074219 220.15356445 594.94074219 220.15356445 594.26074219 C217.46950432 593.67200009 214.78472099 593.1146471 212.09106445 592.57324219 C210.9628125 592.3209082 210.9628125 592.3209082 209.81176758 592.06347656 C204.16946895 590.96432748 201.23595342 591.58947408 196.15356445 594.26074219 C178.65864528 600.09238191 156.317804 590.2730815 139.82446289 585.09545898 C124.87939462 580.42478363 108.89800357 575.5788735 93.68481445 581.93261719 C86.48280147 585.71145116 81.17565596 590.95093492 76.15356445 597.26074219 C77.24816822 591.68821391 78.82652755 587.71246087 82.0324707 583.02246094 C83.32646583 581.14626411 83.32646583 581.14626411 84.15356445 578.26074219 C84.81356445 578.26074219 85.47356445 578.26074219 86.15356445 578.26074219 C86.15356445 577.60074219 86.15356445 576.94074219 86.15356445 576.26074219 C86.71430664 575.98230469 87.27504883 575.70386719 87.8527832 575.41699219 C89.40336243 574.63775373 90.94759468 573.84577162 92.4855957 573.04199219 C111.61835699 563.15924305 134.48464582 565.01568483 154.97387695 569.73730469 C157.88417083 570.21639483 159.43676845 570.27447204 162.15356445 569.26074219 C160.3668324 567.75486768 158.57402937 566.25619369 156.77856445 564.76074219 C155.78083008 563.92542969 154.7830957 563.09011719 153.75512695 562.22949219 C151.43151738 560.05959463 151.43151738 560.05959463 149.15356445 560.26074219 C149.15356445 559.60074219 149.15356445 558.94074219 149.15356445 558.26074219 C148.49356445 558.26074219 147.83356445 558.26074219 147.15356445 558.26074219 C147.15356445 557.60074219 147.15356445 556.94074219 147.15356445 556.26074219 C145.24837444 554.65093047 143.35100784 553.1657095 141.34106445 551.69824219 C140.79385742 551.28638672 140.24665039 550.87453125 139.68286133 550.45019531 C137.18363345 548.599252 135.1239416 547.2508679 132.15356445 546.26074219 C132.15356445 545.60074219 132.15356445 544.94074219 132.15356445 544.26074219 C119.75612043 531.82988187 102.30900854 521.82070814 86.15356445 515.26074219 C85.36852539 514.92816406 84.58348633 514.59558594 83.7746582 514.25292969 C74.51000592 510.51806008 65.62493766 509.92088472 55.71606445 509.94824219 C54.55268555 509.93212891 53.38930664 509.91601562 52.19067383 509.89941406 C38.099265 509.89148418 25.00091751 514.18709532 14.71606445 524.13574219 C4.65803904 534.90412574 2.46047621 544.77688193 2.77856445 559.23339844 C3.36316382 570.39298269 8.92150725 579.2905729 15.15356445 588.26074219 C15.64469727 588.999375 16.13583008 589.73800781 16.6418457 590.49902344 C17.75011771 592.13037368 18.94275115 593.70398222 20.15356445 595.26074219 C20.81356445 595.26074219 21.47356445 595.26074219 22.15356445 595.26074219 C22.40106445 595.81761719 22.64856445 596.37449219 22.90356445 596.94824219 C24.38281263 599.68485132 26.08823885 601.93725088 28.15356445 604.26074219 C28.81356445 604.26074219 29.47356445 604.26074219 30.15356445 604.26074219 C30.40879883 604.84210937 30.6640332 605.42347656 30.92700195 606.02246094 C34.61945411 612.76059816 43.82920608 621.8192894 51.15356445 624.26074219 C51.15356445 624.92074219 51.15356445 625.58074219 51.15356445 626.26074219 C53.79041192 628.65894524 53.79041192 628.65894524 57.15356445 629.26074219 C57.15356445 629.92074219 57.15356445 630.58074219 57.15356445 631.26074219 C58.80356445 631.92074219 60.45356445 632.58074219 62.15356445 633.26074219 C62.15356445 633.92074219 62.15356445 634.58074219 62.15356445 635.26074219 C65.78680134 638.22309914 65.78680134 638.22309914 70.15356445 639.26074219 C70.15356445 639.92074219 70.15356445 640.58074219 70.15356445 641.26074219 C72.28614046 642.95775778 72.28614046 642.95775778 75.05200195 644.70996094 C76.08969727 645.39380859 77.12739258 646.07765625 78.1965332 646.78222656 C79.29610352 647.49701172 80.39567383 648.21179688 81.52856445 648.94824219 C83.66212007 650.34684881 85.79493995 651.74657848 87.92700195 653.14746094 C88.97251221 653.83300049 90.01802246 654.51854004 91.09521484 655.22485352 C94.77675444 657.67558863 98.39136368 660.21146089 101.98876953 662.78369141 C104.77908963 664.68754125 107.68880192 666.2805673 110.66137695 667.87792969 C117.0642753 671.43063504 123.36475091 675.30755365 129.3605957 679.50683594 C132.02732892 681.52664601 132.02732892 681.52664601 135.15356445 681.26074219 C135.15356445 681.92074219 135.15356445 682.58074219 135.15356445 683.26074219 C135.64083008 683.51726563 136.1280957 683.77378906 136.63012695 684.03808594 C142.38269093 687.14447049 147.85107503 690.58890373 153.27905273 694.2253418 C156.17470468 696.13285963 158.68451542 697.746809 162.15356445 698.26074219 C162.15356445 698.92074219 162.15356445 699.58074219 162.15356445 700.26074219 C164.26011755 701.8088647 164.26011755 701.8088647 166.96606445 703.38574219 C173.8973149 707.66970214 180.57632347 712.29007685 186.84887695 717.49902344 C188.9349048 719.46317557 188.9349048 719.46317557 191.15356445 719.26074219 C191.15356445 719.92074219 191.15356445 720.58074219 191.15356445 721.26074219 C192.85486194 722.61591363 194.6164237 723.89597177 196.40356445 725.13574219 C199.28782114 727.14251338 201.91448222 729.01915209 204.38793945 731.51855469 C205.97742737 733.49486437 205.97742737 733.49486437 208.15356445 733.26074219 C208.15356445 733.92074219 208.15356445 734.58074219 208.15356445 735.26074219 C209.67076428 736.79531585 209.67076428 736.79531585 211.65356445 738.38574219 C223.06926213 748.09213754 223.06926213 748.09213754 225.15356445 752.26074219 C225.81356445 752.26074219 226.47356445 752.26074219 227.15356445 752.26074219 C227.15356445 752.92074219 227.15356445 753.58074219 227.15356445 754.26074219 C227.81356445 754.26074219 228.47356445 754.26074219 229.15356445 754.26074219 C229.50547852 755.06511719 229.50547852 755.06511719 229.86450195 755.88574219 C231.52001912 758.93590716 233.62880506 761.55256182 235.77856445 764.26074219 C254.3873605 788.25911749 269.89787701 820.1002631 275.15356445 850.26074219 C279.14027508 848.89386997 282.03851078 847.10879126 285.15356445 844.26074219 C285.15356445 843.60074219 285.15356445 842.94074219 285.15356445 842.26074219 C285.71430664 842.01839844 286.27504883 841.77605469 286.8527832 841.52636719 C289.61442078 840.00723209 291.65387887 838.15178962 293.96606445 836.01074219 C297.01620362 833.20461416 300.0814314 830.4603886 303.27856445 827.82324219 C304.22731445 826.97761719 305.17606445 826.13199219 306.15356445 825.26074219 C306.15356445 824.60074219 306.15356445 823.94074219 306.15356445 823.26074219 C306.81356445 823.26074219 307.47356445 823.26074219 308.15356445 823.26074219 C308.15356445 822.60074219 308.15356445 821.94074219 308.15356445 821.26074219 C308.81356445 821.26074219 309.47356445 821.26074219 310.15356445 821.26074219 C310.15356445 820.60074219 310.15356445 819.94074219 310.15356445 819.26074219 C310.81356445 819.26074219 311.47356445 819.26074219 312.15356445 819.26074219 C312.15356445 818.60074219 312.15356445 817.94074219 312.15356445 817.26074219 C312.81356445 817.26074219 313.47356445 817.26074219 314.15356445 817.26074219 C314.15356445 816.60074219 314.15356445 815.94074219 314.15356445 815.26074219 C314.81356445 815.26074219 315.47356445 815.26074219 316.15356445 815.26074219 C316.15356445 814.60074219 316.15356445 813.94074219 316.15356445 813.26074219 C316.81356445 813.26074219 317.47356445 813.26074219 318.15356445 813.26074219 C319.62227173 811.847543 319.62227173 811.847543 321.15356445 809.94824219 C325.03549515 805.36050591 329.10994917 800.97060176 333.2121582 796.58105469 C335.36746683 794.50932183 335.36746683 794.50932183 335.15356445 792.26074219 C335.81356445 792.26074219 336.47356445 792.26074219 337.15356445 792.26074219 C339.02357523 790.06718987 340.78788411 787.86590142 342.52856445 785.57324219 C343.49457732 784.3192335 344.46072096 783.06532554 345.42700195 781.81152344 C345.88816406 781.20646973 346.34932617 780.60141602 346.82446289 779.97802734 C348.01833798 778.43546353 349.25903192 776.92940678 350.50512695 775.42871094 C352.35531948 773.44931699 352.35531948 773.44931699 352.15356445 771.26074219 C352.81356445 771.26074219 353.47356445 771.26074219 354.15356445 771.26074219 C355.88350319 769.09558789 355.88350319 769.09558789 357.6730957 766.29199219 C358.3659668 765.24527344 359.05883789 764.19855469 359.77270508 763.12011719 C360.50390156 762.0003756 361.23502083 760.88058358 361.96606445 759.76074219 C362.67827148 758.68308594 363.39047852 757.60542969 364.12426758 756.49511719 C366.14755547 753.42555924 368.15457784 750.34616842 370.15356445 747.26074219 C370.95866455 746.02517578 370.95866455 746.02517578 371.7800293 744.76464844 C374.26818093 741.29097965 374.26818093 741.29097965 375.15356445 737.26074219 C375.81356445 737.26074219 376.47356445 737.26074219 377.15356445 737.26074219 C386.34562679 720.5121147 395.18914632 703.62915637 403.15356445 686.26074219 C403.59958008 685.34164062 404.0455957 684.42253906 404.50512695 683.47558594 C408.13904224 675.89125306 410.78905308 667.97707307 413.50512695 660.03027344 C414.51111998 657.08936287 415.55163153 654.16943086 416.6574707 651.26464844 C427.40477699 622.85650188 433.75098445 592.40348939 437.15356445 562.26074219 C437.23695068 561.52738144 437.32033691 560.79402069 437.40625 560.03843689 C439.14965026 544.2272781 439.51244703 528.53320402 439.46606445 512.63574219 C439.46432724 510.78654678 439.46432724 510.78654678 439.46255493 508.8999939 C439.43134967 492.10379562 439.10791135 475.60255458 436.5637207 458.97363281 C436.16065357 456.30763164 435.82020264 453.64065008 435.49731445 450.96386719 C432.61306631 427.78484118 427.30974353 405.23189242 420.05688477 383.05029297 C419.24509462 380.54339725 418.46614931 378.03044982 417.70825195 375.50683594 C417.49434814 374.79825439 417.28044434 374.08967285 417.06005859 373.35961914 C416.5243438 371.57940784 415.98930356 369.79899359 415.4543457 368.01855469 C413.97078957 363.73272587 412.24576839 359.58652548 410.48046875 355.41015625 C409.22453088 352.42918137 408.00361796 349.43661681 406.79418945 346.43652344 C402.13637356 334.97098202 397.13753048 323.95155443 391.15454102 313.12207031 C389.61488744 310.25906571 388.24028075 307.31936476 386.84106445 304.38574219 C380.54601462 291.69363939 372.37833194 279.95254117 364.46875 268.22363281 C362.27599253 264.97082444 360.17086345 261.68736762 358.15356445 258.32324219 C357.49356445 257.31261719 356.83356445 256.30199219 356.15356445 255.26074219 C355.49356445 255.26074219 354.83356445 255.26074219 354.15356445 255.26074219 C353.92797852 254.73609375 353.70239258 254.21144531 353.4699707 253.67089844 C351.68740929 250.40727709 349.40615203 247.5923971 347.09106445 244.69824219 C346.59501709 244.07473877 346.09896973 243.45123535 345.58789062 242.80883789 C344.57930227 241.54336482 343.56898216 240.27926993 342.55688477 239.01660156 C341.35831907 237.51693481 340.17256385 236.00704466 338.98950195 234.49511719 C329.27776133 222.27107301 318.15527877 211.18861594 307.15356445 200.13574219 C306.13166016 199.10682861 306.13166016 199.10682861 305.08911133 198.05712891 C300.60727913 193.58953517 295.9618729 189.37340705 291.15356445 185.26074219 C290.61828125 184.79845215 290.08299805 184.33616211 289.53149414 183.85986328 C283.27929566 178.47052477 276.92819561 173.20873287 270.46606445 168.07324219 C269.86584473 167.59145508 269.265625 167.10966797 268.6472168 166.61328125 C265.74960552 164.07555494 265.74960552 164.07555494 262.15356445 163.26074219 C262.15356445 162.60074219 262.15356445 161.94074219 262.15356445 161.26074219 C260.18463873 159.77794921 260.18463873 159.77794921 257.59106445 158.26074219 C253.681626 155.84842965 249.82918045 153.38836858 246.03173828 150.80566406 C230.38320021 140.18393216 214.05347454 130.74076824 197.15356445 122.26074219 C196.40316895 121.88353027 195.65277344 121.50631836 194.87963867 121.11767578 C174.27985473 110.85559382 152.89095058 102.78217676 130.88647461 96.09521484 C128.5144801 95.37094495 126.15148296 94.62471088 123.7902832 93.86621094 C106.06540956 88.27162151 87.63366454 84.77480746 69.27856445 82.01074219 C68.28421387 81.85984131 67.28986328 81.70894043 66.26538086 81.5534668 C46.20536704 78.69534153 26.27494432 77.85594205 6.02856445 77.88574219 C4.76064056 77.88562134 3.49271667 77.88550049 2.18637085 77.88537598 C-18.75366739 77.91369224 -39.16174167 79.02552285 -59.84643555 82.26074219 Z M159.15356445 351.26074219 C156.08299672 365.29762327 154.08997697 377.2594658 161.8059082 390.19433594 C165.42820803 395.74852901 169.52430991 399.76467884 175.15356445 403.26074219 C175.99467773 403.78474609 175.99467773 403.78474609 176.8527832 404.31933594 C184.8228135 408.76249816 195.054661 411.65269495 204.15356445 411.26074219 C202.77870913 409.71907577 202.77870913 409.71907577 201.15356445 408.26074219 C200.49356445 408.26074219 199.83356445 408.26074219 199.15356445 408.26074219 C199.15356445 407.60074219 199.15356445 406.94074219 199.15356445 406.26074219 C197.70029914 404.83076326 197.70029914 404.83076326 195.77856445 403.32324219 C185.2555866 394.28237389 178.09430593 384.11343697 171.15356445 372.26074219 C170.76861816 371.61041016 170.38367188 370.96007812 169.98706055 370.29003906 C166.32182756 364.08612339 162.90321995 357.92886699 160.15356445 351.26074219 C159.82356445 351.26074219 159.49356445 351.26074219 159.15356445 351.26074219 Z " fill="#05152F" transform="translate(506.846435546875,-0.2607421875)"/>
</svg>
